<?xml version="1.0" encoding="UTF-8"?><svg id="Layer_2" xmlns="http://www.w3.org/2000/svg" viewBox="0 0 427.432 194.564"><g id="Layer_1-2"><path d="M76.372,55.201c.001-.039.002-.076.003-.114" style="fill:#005a5e; stroke-width:0px;"/><path d="M89.421,51.743c-.738-.159-1.048.332-1.493,1.481-.621-.172-2.472-.694-3.106-.847l-.015-.286c-.011-.206-.021-.462-.03-.697-.008-.205-.016-.394-.023-.523l-.046-.871c-.026-.466.165-.808-.257-.989-.298-.127-.244-.075-.543.049-.299.124-.533.359-.658.661l-.714,1.725c-.045.108-.081.236-.117.373-.694-.126-2.267-.374-2.984-.48l-.006-.045c-.022-.179-.047-.608-.066-.952-.023-.401-.037-.653-.055-.794l-.106-.848c-.059-.465-.144-.771-.579-.926-.629-.223-.617.106-.837.746l-.277.806c-.059.172-.099.423-.164.853-.042.279-.106.699-.151.839-.591-.059-2.112-.182-2.708-.228-.016-.28-.032-.63-.045-.9-.033-.71-.048-1.014-.072-1.162l-.133-.842c-.074-.463-.392-.837-.831-.977-.308-.098.133.039-.154.191-.286.152-.497.408-.594.722l-.251.813c-.055.177-.083.459-.15,1.22-.022.25-.053.6-.083.873-.799-.029-2.833-.097-3.643-.103-.031-.326-.065-.875-.088-1.241-.054-.863-.077-1.18-.119-1.35l-.207-.825c-.114-.453-.009-.855-.458-.955-.651-.145-.63.276-.772.938l-.178.83c-.035.162-.055.495-.101,1.336-.02.364-.049.907-.076,1.237-.632.017-2.522-.03-3.168,0-.038-.259-.025-.844-.055-1.202-.061-.745-.148-1.02-.197-1.193l-.076-.883c-.13-.453-.072-.661-.528-.743-.318-.058-.639.014-.903.202-.265.188-.442.47-.498.793l-.148.85c-.027.153-.044.459-.081,1.174-.021.417-.052,1.021-.079,1.269-.748.058-2.193.158-2.953.232-.044-.187-.098-.524-.133-.742-.069-.432-.111-.686-.174-.86l-.292-.81c-.16-.442.14-.782-.321-.831-.321-.034-.636.06-.887.266-.251.206-.408.5-.442.827l-.09.857c-.014.139-.027.391-.046.791-.014.285-.029.6-.044.813-.693.086-2.242.244-2.944.343l-.051-.127c-.057-.142-.126-.441-.182-.681-.064-.277-.12-.517-.188-.686l-.323-.807c-.174-.432.266-.797-.191-.828-.322-.022-.634.085-.877.301-.243.216-.389.516-.41.843l-.057.868c-.009.136-.018.365-.029.63-.011.286-.024.61-.037.809l-.007.1c-.836.137-2.556.455-3.418.61-.415-1.057-.354-1.561-1.047-1.497-.913.086-1.684.84-1.684,1.647,0,.927,2.025,12.374,2.431,14.659l.033.187,2.725,3.316,5.907,16.164,2.535.314v-.074c.573-.689,1.685-1.732,1.685-1.732l1.842,2.033,1.251-2.298,1.633,2.015,1.529-2.015,1.407,2.05,1.268-2.262,1.216,2.28,1.581-2.386,1.077,2.616,1.512-2.262,1.286,2.262,1.512-1.944s.405.613,1.274,1.891c.865-.102,1.37-.174,1.37-.175l1.417-.303,4.494-16.866,2.008-2.529.037-.161c.113-.495,2.767-12.138,3.083-13.81.25-1.321.168-1.978-.661-2.157ZM54.218,69.733c-.26.029-.496-.147-.55-.397,0,0-.259-1.224-.648-3.059-.192-.918-.417-1.989-.657-3.137-.238-1.148-.493-2.373-.747-3.597-.251-1.225-.502-2.45-.737-3.599-.118-.574-.231-1.129-.339-1.656-.023-.114-.046-.225-.069-.336l2.404-.373c.013.108.025.216.038.327.063.534.129,1.096.198,1.679.137,1.164.283,2.406.429,3.648.143,1.243.286,2.485.419,3.65.132,1.165.255,2.253.36,3.185.207,1.865.345,3.108.345,3.108.031.277-.169.527-.446.558ZM58.189,83.427c-.362.085-.724-.139-.809-.501l-2.617-11.135c-.085-.362.139-.724.501-.809.362-.085.724.139.809.501l2.617,11.135c.085.362-.139.724-.501.809ZM58.42,68.764s-.213-1.221-.532-3.052c-.157-.916-.341-1.984-.538-3.129-.195-1.145-.403-2.366-.611-3.588-.204-1.222-.409-2.444-.601-3.589-.096-.573-.189-1.126-.276-1.651-.033-.197-.065-.389-.097-.578-.03.03,2.438-.274,2.438-.274.015.182.029.367.045.557.043.531.087,1.09.134,1.669.093,1.158.192,2.393.291,3.627.096,1.235.191,2.471.281,3.629.088,1.158.17,2.239.24,3.166l.227,3.09c.02.278-.189.52-.467.541-.261.019-.49-.165-.535-.417ZM61.152,82.956c-.369.038-.7-.23-.738-.6l-1.181-11.396c-.038-.369.23-.7.6-.738s.7.23.738.6l1.181,11.396c.038.369-.23.7-.6.738ZM62.406,65.328c-.093-.926-.201-2.006-.318-3.164-.114-1.158-.236-2.392-.358-3.627-.118-1.235-.237-2.47-.348-3.628-.056-.579-.109-1.138-.16-1.669-.019-.193-.06-.396-.078-.581l2.466-.205c.002.21.01.438.013.659.005.533.011,1.095.017,1.677.012,1.163.024,2.403.036,3.644.009,1.241.018,2.481.026,3.644.006,1.163.012,2.249.018,3.179.006,1.861.01,3.102.01,3.102,0,.279-.224.506-.503.507-.261,0-.477-.199-.504-.453,0,0-.127-1.234-.317-3.086ZM64.383,82.584c-.371.026-.692-.253-.718-.623l-.81-11.433c-.026-.371.253-.692.623-.718.371-.026.692.253.718.623l.81,11.433c.026.371-.253.692-.623.718ZM68.458,81.913c0,.371-.301.673-.673.673s-.673-.301-.673-.673v-11.508c0-.371.301-.673.673-.673s.673.301.673.673v11.508ZM68.729,53.05c-.014.524-.028,1.077-.043,1.649-.03,1.144-.062,2.364-.094,3.584-.035,1.22-.071,2.44-.104,3.584-.035,1.144-.068,2.211-.096,3.126l-.101,3.05c-.009.279-.243.497-.522.488-.261-.009-.469-.216-.487-.471,0,0-.083-1.218-.206-3.045-.06-.913-.129-1.979-.204-3.121-.073-1.142-.15-2.36-.228-3.578-.074-1.218-.148-2.436-.218-3.578-.035-.571-.068-1.123-.1-1.646-.016-.262-.031-.516-.046-.762-.002-.026-.003-.052-.005-.078l2.456-.096c-.006.247.006.632-.001.894ZM71.728,81.961c-.026.37-.348.649-.719.623-.37-.026-.649-.348-.623-.719l.801-11.209c.026-.37.348-.649.719-.623s.649.348.623.719l-.801,11.209ZM73.542,58.669c-.145,1.215-.29,2.43-.426,3.569-.138,1.139-.267,2.202-.377,3.113-.225,1.822-.375,3.036-.375,3.036-.034.277-.286.473-.563.439-.259-.032-.448-.257-.443-.513,0,0,.027-1.223.068-3.059.023-.917.049-1.988.078-3.135.03-1.147.063-2.37.095-3.593.036-1.223.072-2.446.105-3.592.017-.573.033-1.127.048-1.653.008-.263.017-.832.024-1.079l2.506.119s0,.008-.001.012c-.014.119-.028.239-.042.362-.029.246-.058.5-.089.761-.061.522-.125,1.073-.192,1.642-.133,1.139-.275,2.354-.416,3.57ZM76.486,71.273l-1.42,11.284c-.046.369-.383.63-.751.583s-.63-.383-.583-.751l1.42-11.284c.046-.369.383-.63.751-.583s.63.383.583.751ZM76.268,68.824c-.258-.04-.439-.272-.426-.527,0,0,.067-1.225.168-3.064.053-.919.114-1.991.18-3.139.068-1.148.14-2.373.212-3.598.076-1.225.151-2.449.222-3.597.035-.574.07-1.129.102-1.655l.034-.69,2.455.285c-.032.214-.064.432-.098.657-.078.521-.16,1.071-.245,1.64-.17,1.138-.351,2.351-.532,3.564-.185,1.213-.369,2.426-.542,3.563-.175,1.137-.338,2.198-.479,3.108-.284,1.819-.474,3.031-.474,3.031-.043.276-.301.464-.577.421ZM80.437,71.966l-2.41,11.172c-.078.363-.436.594-.799.516-.363-.078-.594-.436-.516-.799l2.41-11.172c.078-.363.436-.594.799-.516.363.078.594.436.516.799ZM84.101,55.976c-.25,1.148-.517,2.372-.784,3.597-.27,1.224-.541,2.448-.794,3.595-.255,1.147-.494,2.218-.698,3.135-.413,1.835-.688,3.058-.688,3.058-.061.272-.332.443-.604.382-.255-.057-.421-.301-.39-.555,0,0,.154-1.244.385-3.11.118-.933.255-2.021.402-3.187.149-1.166.308-2.409.467-3.652.162-1.243.325-2.485.477-3.65.076-.583.15-1.146.22-1.68.025-.191.049-.377.073-.56.799.189,2.425.507,2.425.507-.115.526-.365,1.546-.49,2.12Z" style="fill:#8b6fc9; stroke-width:0px;"/><rect x="47.56" y="38.561" width="6.207" height="1.073" rx=".48" ry=".48" style="fill:#004d71; stroke-width:0px;"/><path d="M92.264,20.524c1.989,2.512.733,4.561-.573,4.452-1.307-.11-1.889-2.748-1.889-2.748,0,0-5.657,4.071-6.052,4.307-.396.236-.455.396-.43.657.025.262.404.566.657.439.063-.032.421-.252.921-.564-.332.966-.027,2.048.577,2.599-1.041.521-1.481.716-1.481.716,0,0-1.625-2.116-2.788-4.986-1.162-2.87-1.464-5.409-1.464-5.409l1.794,1.306v-6.328l-1.693.788.818-2.08-6.214.014.933,2.052-1.88-1.32.043,6.715,2.166-1.09s-.043,1.062-.904,3.83c-.861,2.77-2.898,4.032-2.898,4.032,0,0-2.697-7.634-4.247-11.967.358.3,3.214.602,3.888-2.468.674-3.071-1.133-5.452-3.716-5.955,1.005-4.219-1.248-6.586-2.666-7.518-1.418.932-3.67,3.299-2.666,7.518-2.582.503-4.391,2.884-3.716,5.955.674,3.07,3.53,2.769,3.889,2.468-1.55,4.333-4.247,11.967-4.247,11.967,0,0-2.038-1.263-2.898-4.032-.862-2.769-.905-3.83-.905-3.83l2.167,1.09.043-6.715-1.88,1.32.933-2.052-6.213-.014.818,2.08-1.693-.788v6.328l1.794-1.306s-.302,2.539-1.464,5.409c-1.162,2.87-2.789,4.986-2.789,4.986,0,0-.439-.195-1.481-.716.605-.551.91-1.633.577-2.599.5.312.857.532.921.564.253.127.633-.177.659-.439.025-.261-.034-.421-.43-.657-.396-.236-6.052-4.307-6.052-4.307,0,0-.582,2.639-1.889,2.748-1.307.11-2.563-1.939-.574-4.452-4.089-2.618-11.009-7.012-11.117-7.08.054.136,4.216,10.34,5.716,15.88,1.511,5.577,6.125,17.489,6.393,19.141,19.614-6.591,39.582-5.477,54.35-1.571.268-1.653,2.744-11.993,4.256-17.57,1.5-5.539,5.661-15.745,5.716-15.88-.108.068-7.028,4.462-11.118,7.08ZM43.243,28.887c-.561,0-1.015-.455-1.015-1.017s.454-1.015,1.015-1.015,1.015.455,1.015,1.015-.454,1.017-1.015,1.017ZM52.198,29.445l1.861,2.704-1.861,3.133-1.755-3.151,1.755-2.686ZM54.922,39.154c0,.902-.734,1.635-1.635,1.635h-5.247c-.902,0-1.635-.734-1.635-1.635v-.113c0-.902.734-1.635,1.635-1.635h5.247c.902,0,1.635.734,1.635,1.635v.113ZM68.404,11.999c.725,0,1.313.587,1.313,1.313s-.587,1.313-1.313,1.313-1.313-.587-1.313-1.313.587-1.313,1.313-1.313ZM65.167,27.914l2.168,2.804-2.168,4.369-2.166-4.369,2.166-2.804ZM61.932,14.624c-.725,0-1.314-.587-1.314-1.313s.588-1.313,1.314-1.313,1.313.587,1.313,1.313-.587,1.313-1.313,1.313ZM69.349,39.154c0,.902-.734,1.635-1.635,1.635h-5.247c-.902,0-1.635-.734-1.635-1.635v-.113c0-.902.734-1.635,1.635-1.635h5.247c.902,0,1.635.734,1.635,1.635v.113ZM78.138,29.445l1.755,2.686-1.755,3.151-1.863-3.133,1.863-2.704ZM83.943,39.154c0,.902-.734,1.635-1.635,1.635h-5.247c-.902,0-1.635-.734-1.635-1.635v-.113c0-.902.734-1.635,1.635-1.635h5.247c.902,0,1.635.734,1.635,1.635v.113ZM87.093,28.887c-.561,0-1.017-.455-1.017-1.017s.455-1.015,1.017-1.015,1.015.455,1.015,1.015-.455,1.017-1.015,1.017Z" style="fill:#004d71; stroke-width:0px;"/><rect x="76.581" y="38.561" width="6.207" height="1.073" rx=".48" ry=".48" style="fill:#004d71; stroke-width:0px;"/><rect x="61.987" y="38.561" width="6.207" height="1.073" rx=".48" ry=".48" style="fill:#004d71; stroke-width:0px;"/><path d="M127.744,79.571c2.092-5.896,2.747-12.279,2.747-12.279,0,0-1.712.951-4.966,1.416-3.255.465-4.501-1.606-3.931-5.537.571-3.931,5.981-6.108,5.981-6.108,0,0-3.698-.423-6.509-1.331-2.811-.909-3.867-4.565-1.712-9.214,2.156-4.649,5.854-9.552,5.854-9.552,0,0-3.339.444-6.509-.211-3.17-.655-5.051-2.578-5.305-8.58-.254-6.002,1.374-11.285,1.374-11.285,0,0-2.304,1.987-4.797,6.002-2.494,4.015-3.783,7.502-4.438,13.272-.803-.803-3.276-2.895-4.713-7.545-.951,4.945-.824,13.969-.127,18.111.697,4.142,3.022,8.327,4.29,11.032,1.268,2.705,4.354,8.559,2.452,10.672-1.902,2.113-5.516.74-5.516.74,0,0,.697,1.395,1.162,4.269.465,2.874.211,6.044-2.092,9.278,2.008.106,3.825.613,4.734,1.479.909.866,2.113,3.91-.993,5.093-3.107,1.183-7.883-.697-7.883-.697,0,0,.275,1.67.38,5.706.106,4.037-.148,7.566-2.05,11.771-1.902,4.206-3.677,6.53-8.348,6.551-.169.486-2.134,9.13-4.48,13.272-2.346,4.142-7.587,5.114-9.299,3.825-1.712-1.289-1.648-3.889,1.5-8.432,3.149-4.544,4.903-6.108,8.242-10.398,3.339-4.29,4.079-8.622,3.17-12.596s-4.501-9.341-5.389-10.546c-.101-.137-.207-.258-.317-.366l.018-.067-1.154.247s-.504.073-1.37.175c-.869-1.278-1.274-1.891-1.274-1.891l-1.512,1.944-1.286-2.262-1.512,2.262-1.077-2.616-1.581,2.386-1.216-2.28-1.268,2.263-1.407-2.05-1.529,2.015-1.633-2.015-1.251,2.298-1.842-2.033s-1.112,1.043-1.685,1.732v.074l-2.003-.248c-1.886,2.506-5.529,10.155-5.718,15.337-.224,6.128,4.521,10.499,8.519,13.787,3.998,3.288,6.24,6.651,6.24,6.651,0,0-3.512-1.42-6.912-1.756,5.268,4.745,7.249,8.482,4.708,9.079-2.541.598-6.352-3.363-8.556-9.901-5.156.635-7.585-1.868-10.35-7.697-2.765-5.829-5.082-11.247-6.763-16.515-3.027,1.046-6.763.971-8.257-1.009-1.495-1.98-2.503-6.95,3.251-9.453-4.334-3.139-3.736-9.266-1.943-16.328-4.969.374-5.455-.374-4.222-5.941,1.233-5.567,5.567-11.433,5.567-11.433,0,0-2.877-.075-3.811-2.242-.934-2.167,1.308-8.108,3.624-13.49-4.147,1.493-5.978.6-7.062-2.352-1.084-2.952-4.558-9.528-8.407-15.095,1.121,6.875.787,16.465-2.214,18.621-3.001,2.156-8.01-.697-8.01-.697,0,0,.993,2.325,1.458,6.699.465,4.375-.148,8.094-4.332,12.532,4.882,3.403,8.622,8.052,7.925,11.264-.697,3.212-4.184,2.811-7.524-.296-.423,2.599-.592,8.263,1.437,13.103,2.029,4.84,6.15,9.574,5.579,12.553-.571,2.98-7.016,3.043-7.016,3.043,0,0,8.052,5.283,11.454,9.531,3.403,4.248,2.98,10.525,2.98,10.525,0,0,5.727,1.331,7.693,4.565s-.402,10.334-.402,10.334c0,0,5.939-1.923,9.7.571,3.762,2.494,5.051,8.813,5.051,8.813,0,0,.444-.634,4.015-2.642,3.572-2.008,6.129-1.733,7.207,2.367,2.599-2.557,4.523-2.747,6.023,1.205,3.445-3.572,7.185-1.733,8.158-.148.972,1.585-.296,5.22-.317,9.764-.021,4.544,1.014,8.897,4.713,10.102,3.698,1.205,6.573.317,7.122-2.79.549-3.107-1.057-6.763-2.092-12.025-1.036-5.262,2.409-7.798,6.108-8.221,3.698-.423,6.467,4.184,6.467,4.184,0,0,2.578-3.762,5.199-6.425,2.621-2.663,5.896-5.685,12.659-6.213,6.763-.528,12.11.803,12.11.803,0,0-1.374-2.113-2.304-5.178-.93-3.064-1.987-6.826-1.31-11.729.676-4.903,2.959-8.897,7.798-14.772,4.84-5.875,8.961-9.172,8.961-9.172l-6.742-.063s2.515-3.698,4.607-9.595ZM53.112,131.84c-.757.476-2.746.112-7.37-2.55-4.624-2.662-12.666-8.659-17.907-15.861-5.24-7.202-8.547-13.647-10.537-22.418s-1.653-13.339-1.261-24.156c.392-10.817,2.382-13.731,2.83-21.774.379-6.792-.542-14.003-.837-16.082-.054-.383.042-.771.269-1.085.239-.33.756-.232.854.163,1.791,7.155,1.817,14.031,1.227,20.702-.617,6.978-2.354,14.796-2.354,24.072s.392,16.281,3.026,23.371c2.634,7.09,6.782,15.245,15.301,23.091,8.519,7.846,16.618,10.341,16.87,10.565.252.224.645,1.485-.112,1.962ZM80.376,98.399c1.013-.582,1.49.072,1.422.471-.068.4-1.135,3.317-1.4,4.162s-.28,1.81-.726,1.825c-.445.015-.695-.398-.708-1.215-.013-.818.426-2.049,1.104-3.427-.975.632-3.194,1.772-3.926,1.601-.732-.172-.84-.584-.135-.975.705-.39,3.355-1.859,4.369-2.441ZM72.077,92.524c.651-.475,3.098-2.262,4.031-2.966.933-.704,1.487-.114,1.47.29s-.713,3.432-.871,4.304c-.158.871-.053,1.831-.493,1.901s-.739-.308-.854-1.118c-.114-.81.167-2.086.669-3.538-.889.748-2.948,2.156-3.696,2.077-.748-.079-.906-.475-.255-.95ZM73.269,96.741c.94-.694,1.489-.098,1.467.306s-.75,3.424-.918,4.294c-.168.87-.073,1.83-.513,1.896-.441.066-.736-.316-.842-1.127-.106-.811.19-2.084.707-3.53-.897.738-2.971,2.124-3.719,2.037-.747-.087-.901-.485-.245-.953.656-.468,3.122-2.228,4.063-2.922ZM65.558,95.451c.262-.762,1.246-3.628,1.608-4.739.362-1.111,1.154-.945,1.371-.603.217.342,1.38,3.223,1.748,4.028s1.004,1.531.684,1.841c-.321.31-.783.17-1.34-.428-.557-.598-1.057-1.806-1.476-3.284-.301,1.122-1.184,3.455-1.843,3.819-.659.363-1.015.129-.753-.633ZM58.938,89.48c.366.174,2.884,1.993,3.625,2.478.741.485,1.666.761,1.559,1.194-.106.433-.572.561-1.362.351-.79-.21-1.856-.966-2.998-1.994.343,1.11.838,3.555.474,4.213-.364.658-.791.65-.975-.135-.184-.785-.877-3.734-1.162-4.868-.285-1.133.474-1.414.84-1.241ZM57.368,104.892c-.269.703-.692.754-.984.002-.292-.752-1.389-3.575-1.83-4.658s.272-1.467.658-1.346c.387.121,3.134,1.571,3.935,1.948.801.377,1.755.522,1.71.965s-.488.635-1.3.538c-.812-.098-1.973-.698-3.247-1.556.494,1.051,1.326,3.403,1.057,4.106ZM63.271,109.655c-.812-.098-1.973-.698-3.247-1.556.494,1.051,1.326,3.403,1.057,4.106-.269.703-.692.754-.984.002-.292-.752-1.389-3.575-1.83-4.658-.441-1.083.272-1.467.659-1.346.387.121,3.134,1.571,3.935,1.948s1.755.522,1.71.965c-.045.443-.488.635-1.3.538ZM63.026,98.599c.284,1.127.649,3.595.25,4.233s-.824.607-.966-.186-.678-3.775-.903-4.922c-.225-1.147.548-1.387.904-1.194.356.193,2.774,2.143,3.488,2.667.714.524,1.623.849,1.494,1.275-.129.426-.6.53-1.379.278s-1.802-1.063-2.889-2.15ZM65.28,107.274c.303-.747,1.443-3.554,1.865-4.644.422-1.09,1.204-.88,1.402-.527.198.353,1.201,3.293,1.525,4.117.324.824.919,1.584.582,1.876-.337.292-.791.127-1.314-.501-.524-.628-.956-1.861-1.294-3.36-.362,1.104-1.371,3.386-2.049,3.712-.678.327-1.021.073-.717-.674ZM71.566,116.694c-.332.297-.788.141-1.322-.479-.534-.619-.987-1.845-1.35-3.338-.343,1.11-1.315,3.408-1.987,3.746-.672.338-1.02.09-.729-.662.291-.752,1.383-3.578,1.787-4.674.404-1.097,1.189-.9,1.393-.55s1.256,3.273,1.594,4.091c.338.819.945,1.569.613,1.866ZM71.568,109.408c.658-.466,3.13-2.218,4.072-2.908.943-.691,1.489-.093,1.465.311-.023.405-.761,3.422-.932,4.291-.171.869-.079,1.83-.52,1.894-.441.064-.735-.318-.838-1.13-.103-.811.197-2.083.719-3.528-.899.735-2.979,2.114-3.725,2.024-.747-.09-.9-.488-.242-.954ZM113.796,95.143c-1.845,5.913-5.053,13.707-8.797,19.745-3.745,6.038-6.593,8.278-9.729,10.876s-5.966,5.877-9.693,6.934c-1.075-.376-.681-1.953-.681-1.953,0,0,1.756-.878,5.357-3.476,3.601-2.598,7.884-6.307,11.126-10.804,3.243-4.497,6.002-9.908,7.686-14.549,1.684-4.641,3.727-9.478,4.802-14.764,1.075-5.286,1.075-9.317.394-14.853-.681-5.536-1.505-9.478-2.508-14.835-1.003-5.357-1.398-9.156-1.756-14.817-.349-5.519-.672-7.384-.058-15.887.031-.424.263-.807.625-1.03h0c.517-.319,1.173.102,1.098.704-.474,3.818-.363,10.597-.055,17.088.355,7.491.635,7.51,1.625,13.19.99,5.679,3.419,13.75,3.736,19.616.318,5.866-1.328,12.903-3.173,18.816Z" style="fill:#008da8; stroke-width:0px;"/><path d="M72.018,161.798c-.935,0-1.973-.182-3.091-.546-3.386-1.103-5.089-4.664-5.061-10.585.009-1.882.224-3.584.415-5.086.257-2.024.459-3.623-.024-4.411-.418-.682-1.515-1.487-2.935-1.642-1.08-.118-2.726.112-4.427,1.876l-.553.574-.283-.745c-.618-1.626-1.317-2.535-2.078-2.702-.779-.17-1.798.379-3.119,1.678l-.622.611-.222-.843c-.424-1.612-1.1-2.625-2.009-3.01-1.06-.449-2.519-.136-4.461.955-3.284,1.846-3.842,2.485-3.865,2.512l-.674.962-.22-1.171c-.013-.061-1.294-6.145-4.835-8.493-3.517-2.332-9.208-.529-9.265-.511l-.951.308.316-.948c.023-.069,2.27-6.917.449-9.912-1.831-3.012-7.32-4.322-7.375-4.335l-.418-.097.028-.429c.004-.061.365-6.135-2.87-10.175-3.313-4.136-11.257-9.372-11.337-9.425l-1.387-.91,1.66-.017c1.678-.018,6.121-.525,6.525-2.633.324-1.691-1.17-4.25-2.752-6.958-1-1.712-2.034-3.483-2.797-5.305-2.073-4.946-1.899-10.737-1.47-13.379l.152-.932.692.643c1.964,1.828,4.006,2.704,5.328,2.29.699-.219,1.155-.801,1.357-1.731.595-2.742-2.579-7.16-7.72-10.742l-.481-.335.402-.426c4.093-4.341,4.638-7.989,4.198-12.132-.45-4.232-1.411-6.532-1.421-6.555l-.584-1.375,1.299.737c.047.027,4.765,2.666,7.465.726,2.659-1.91,3.186-10.916,2.01-18.129l-.361-2.214,1.276,1.845c3.797,5.493,7.351,12.171,8.466,15.208.896,2.439,2.233,3.557,6.416,2.051l1.096-.394-.46,1.07c-1.145,2.661-4.63,10.757-3.624,13.09.792,1.838,3.336,1.936,3.361,1.937l.965.029-.572.776c-.043.058-4.285,5.847-5.48,11.242-.575,2.596-.798,4.225-.236,4.873.508.586,1.879.608,3.927.455l.701-.053-.173.681c-1.618,6.373-2.527,12.698,1.749,15.794l.717.519-.812.353c-2.159.939-3.484,2.295-3.94,4.029-.468,1.781.11,3.622.891,4.656,1.358,1.8,4.975,1.774,7.689.836l.489-.169.157.493c1.516,4.751,3.594,9.825,6.738,16.452,2.926,6.167,5.315,7.969,9.832,7.412l.409-.05.132.391c2.208,6.55,5.853,10.065,7.962,9.571.519-.122.638-.365.682-.537.252-.982-1.067-3.581-5.612-7.675l-1.143-1.03,1.531.151c2.037.202,4.089.774,5.45,1.218-1.012-1.264-2.77-3.263-5.148-5.219-4.65-3.824-8.923-8.191-8.703-14.196.192-5.252,3.75-12.733,5.676-15.427l-6.148-16.524-2.797-3.345-.024-.132c-.256-1.418-2.504-13.879-2.504-14.819,0-.708.702-1.37,1.534-1.447.663-.061,1.443.283,1.807,1.375,1.01-.181,2.012-.35,2.988-.506l.019-.278c.014-.208.027-.531.039-.827.01-.26.02-.5.029-.631l.059-.88c.038-.563.529-.99,1.089-.952.387.026.732.275.879.634l.332.818c.063.155.119.391.183.663.062.264.133.563.198.723l.118.29c.844-.117,1.685-.227,2.511-.326l.002-.021c.021-.194.041-.618.059-.992.017-.342.033-.658.047-.789l.092-.868c.029-.272.162-.516.375-.688.213-.172.478-.25.751-.222.389.041.716.296.852.664l.301.821c.058.157.1.405.169.83.051.314.121.744.177.896l.022.06c.904-.088,1.806-.165,2.69-.231l.016-.088c.031-.176.068-.882.095-1.396.034-.642.054-1.013.08-1.162l.153-.862c.048-.269.198-.504.422-.66.224-.157.495-.217.765-.168.386.068.694.345.804.723l.243.841c.045.155.074.465.134,1.188.037.446.1,1.193.144,1.346l.018.063c.794-.038,1.585-.067,2.361-.086.033-.276.071-.975.098-1.459.045-.823.067-1.172.099-1.32l.184-.842c.12-.551.666-.904,1.218-.781.38.083.676.369.773.746l.213.836c.039.153.063.486.117,1.33.031.489.077,1.203.114,1.462.968.005,1.937.026,2.891.062.039-.293.082-.773.111-1.095.066-.739.096-1.033.145-1.19l.259-.824c.082-.261.26-.474.503-.601.242-.126.519-.151.781-.069.372.117.642.429.704.814l.137.853c.023.145.042.513.071,1.151.017.36.038.812.059,1.112.737.053,1.475.117,2.203.191l.055-.158c.053-.153.12-.583.168-.897.065-.423.105-.67.159-.826l.285-.817c.186-.533.772-.815,1.304-.629.368.128.628.449.678.837l.109.86c.018.143.035.442.055.789.022.372.046.793.07.982l.027.214c.865.123,1.719.262,2.551.413.009-.035.019-.071.027-.103.044-.167.086-.324.137-.444l.736-1.748c.219-.519.819-.764,1.34-.546.358.151.603.499.624.887l.048.883c.007.131.015.324.024.532.009.238.02.496.031.705l.025.457c.774.181,1.544.377,2.298.586.391-1.19,1.225-1.588,1.928-1.438.751.159,1.424.976,1.194,2.175-.325,1.691-3.061,13.489-3.178,13.99l-.026.113-2.068,2.56-4.677,17.254c.057.066.111.134.162.204,1.136,1.542,4.58,6.823,5.475,10.733,1.035,4.526-.063,8.906-3.264,13.019-1.308,1.68-2.356,2.924-3.371,4.127-1.581,1.875-2.947,3.495-4.855,6.248-2.705,3.904-3.248,6.508-1.612,7.741.592.446,1.767.556,3.069.285,2.304-.479,4.355-1.958,5.486-3.955,1.944-3.432,3.659-10.154,4.223-12.363.132-.518.187-.733.219-.826l.118-.338.358-.002c4.312-.02,5.98-2.032,7.89-6.254,1.816-4.016,2.114-7.397,2.005-11.55-.103-3.94-.371-5.621-.374-5.637l-.143-.876.827.325c.046.018,4.632,1.794,7.518.696.933-.356,1.484-.916,1.635-1.666.2-.994-.342-2.142-.81-2.589-.771-.735-2.42-1.236-4.412-1.34l-.919-.048.534-.75c1.916-2.689,2.552-5.518,2.005-8.904-.444-2.745-1.109-4.111-1.116-4.125l-.569-1.15,1.2.452c.033.012,3.316,1.222,4.961-.605,1.508-1.676-.877-6.657-2.159-9.333-.136-.284-.262-.548-.374-.787-.216-.461-.463-.965-.727-1.504-1.272-2.597-3.014-6.153-3.603-9.658-.717-4.254-.819-13.362.128-18.291l.382-1.986.597,1.932c1.085,3.512,2.799,5.54,3.853,6.615.663-4.986,1.894-8.448,4.385-12.46,2.505-4.035,4.8-6.035,4.896-6.118l1.329-1.146-.516,1.677c-.016.052-1.598,5.276-1.351,11.115.251,5.939,2.141,7.536,4.902,8.107,3.052.631,6.308.21,6.34.205l1.197-.159-.727.965c-.037.049-3.692,4.915-5.799,9.461-1.166,2.515-1.416,4.914-.688,6.582.42.961,1.145,1.632,2.097,1.939,2.729.882,6.374,1.306,6.411,1.31l1.976.226-1.845.745c-.051.021-5.148,2.118-5.669,5.712-.304,2.093-.061,3.603.702,4.368.566.567,1.46.767,2.657.596,3.106-.444,4.776-1.349,4.793-1.358l.845-.465-.098.959c-.006.064-.685,6.511-2.773,12.396l-.476-.169.476.169c-1.557,4.388-3.326,7.542-4.17,8.929l7.251.068-1.107.887c-.041.033-4.141,3.337-8.886,9.099-5.041,6.12-7.053,9.919-7.688,14.52-.635,4.605.25,8.073,1.293,11.513.896,2.953,2.23,5.028,2.244,5.049l.696,1.074-1.242-.308c-.053-.013-5.353-1.304-11.949-.79-6.373.498-9.473,3.152-12.338,6.064-2.56,2.601-5.117,6.319-5.143,6.356l-.444.648-.406-.673c-.026-.043-2.645-4.327-5.976-3.943-2.098.24-3.808,1.131-4.816,2.51-.972,1.33-1.259,3.049-.853,5.112.337,1.714.744,3.287,1.102,4.675.771,2.984,1.38,5.341.992,7.536-.242,1.366-.923,2.42-1.969,3.048-.755.453-1.671.68-2.716.68ZM60.839,138.491c.21,0,.407.012.592.032,1.768.193,3.126,1.203,3.688,2.118.669,1.091.446,2.845.165,5.066-.187,1.473-.399,3.143-.407,4.964-.025,5.431,1.443,8.668,4.364,9.619,2.05.668,3.817.654,4.974-.04.799-.479,1.301-1.272,1.493-2.357.35-1.978-.235-4.241-.975-7.106-.362-1.401-.772-2.989-1.115-4.733-.463-2.351-.116-4.337,1.029-5.903,1.177-1.609,3.136-2.646,5.517-2.918,3.138-.357,5.584,2.485,6.533,3.795.843-1.179,2.808-3.834,4.83-5.888,2.885-2.932,6.264-5.838,12.98-6.363,5.014-.392,9.216.215,11.145.579-.496-.926-1.217-2.437-1.783-4.302-.814-2.684-2.045-6.739-1.327-11.945.664-4.81,2.733-8.742,7.909-15.025,3.388-4.113,6.459-6.997,7.997-8.358l-6.336-.06.53-.781c.025-.037,2.505-3.721,4.549-9.48,1.597-4.5,2.353-9.337,2.612-11.28-.835.332-2.273.8-4.284,1.087-1.53.219-2.713-.079-3.515-.883-1.011-1.014-1.344-2.772-.988-5.227.412-2.835,3.065-4.779,4.795-5.762-1.348-.214-3.303-.582-4.978-1.124-1.235-.399-2.172-1.262-2.712-2.496-.857-1.962-.61-4.594.696-7.411,1.604-3.46,4.076-7.089,5.249-8.736-1.272.081-3.432.117-5.548-.32-3.815-.789-5.469-3.412-5.707-9.054-.167-3.944.455-7.543.923-9.618-.883.98-2.125,2.508-3.412,4.58-2.604,4.193-3.746,7.611-4.365,13.062l-.118,1.042-.741-.741c-.065-.065-.142-.139-.228-.223-.824-.796-2.582-2.495-3.925-5.654-.601,5.003-.447,12.337.17,16.002.566,3.361,2.27,6.84,3.515,9.381.267.545.516,1.054.734,1.52.111.237.237.498.371.779,1.481,3.092,3.96,8.267,1.999,10.446-1.462,1.625-3.737,1.446-5.05,1.163.248.729.567,1.866.82,3.427.536,3.313-.018,6.242-1.694,8.925,1.859.209,3.357.757,4.186,1.547.631.602,1.391,2.092,1.104,3.52-.154.765-.672,1.804-2.266,2.411-2.507.956-5.931.069-7.461-.424.091.87.219,2.462.284,4.947.112,4.296-.199,7.801-2.095,11.993-2.504,5.535-4.921,6.75-8.421,6.843-.031.121-.068.264-.105.41-.572,2.241-2.313,9.062-4.323,12.611-1.273,2.247-3.576,3.909-6.16,4.447-1.6.333-3.052.158-3.882-.467-2.151-1.62-1.684-4.69,1.389-9.124,1.935-2.792,3.381-4.508,4.913-6.324,1.008-1.196,2.051-2.432,3.346-4.096,3.005-3.861,4.04-7.957,3.076-12.173-.856-3.743-4.199-8.861-5.303-10.358-.079-.108-.168-.211-.265-.307l-.209-.207,4.883-18.013,2.055-2.545c.288-1.243,2.839-12.254,3.144-13.84.105-.546-.127-.935-.411-.995-.28-.061-.645.229-.825,1.008l-.152.703-.52-.149c-1.014-.291-2.062-.559-3.114-.798l-.372-.084-.066-1.218c-.012-.213-.022-.476-.032-.718-.008-.203-.016-.39-.022-.518l-.048-.882-.76,1.744c-.023.055-.061.197-.091.311-.046.173-.093.351-.151.488l-.213.505-.401-.076c-1.069-.203-2.184-.383-3.312-.538l-.384-.053-.124-.983c-.028-.223-.052-.643-.076-1.05-.018-.312-.034-.601-.049-.72l-.109-.859-.31.815c-.027.082-.078.409-.115.647-.078.505-.135.853-.213,1.076l-.318.914-.399-.043c-.98-.105-1.984-.192-2.983-.258l-.402-.027-.082-.512c-.034-.213-.061-.734-.097-1.505-.02-.418-.044-.938-.06-1.039l-.137-.852-.284.822c-.024.099-.07.607-.103.977-.072.801-.121,1.305-.194,1.537l-.162.512-.387-.017c-1.203-.052-2.436-.079-3.665-.08h-.393s-.175-.688-.175-.688c-.058-.23-.098-.803-.156-1.719-.028-.437-.066-1.037-.09-1.153l-.21-.827-.209.842c-.02.109-.053.717-.078,1.16-.05.914-.084,1.486-.133,1.711l-.149.686-.4.008c-1.023.021-2.078.059-3.135.114l-.4.021-.241-.833c-.067-.233-.113-.738-.181-1.542-.031-.375-.074-.89-.1-.998l-.241-.834-.177.863c-.017.103-.046.643-.066,1.038-.041.775-.07,1.299-.109,1.52l-.154.864-.393.028c-1.126.08-2.285.179-3.444.296l-.39.039-.292-.795c-.083-.225-.143-.575-.226-1.082-.039-.237-.091-.563-.12-.645l-.301-.819-.117.872c-.013.122-.027.415-.042.732-.02.407-.04.828-.064,1.05l-.088.823-.401.047c-1.072.126-2.175.269-3.279.425l-.391.055-.414-1.02c-.094-.232-.171-.557-.245-.871-.045-.192-.102-.431-.136-.515l-.332-.817-.083.883c-.008.125-.018.355-.028.604-.012.306-.026.639-.04.854l-.07,1.083-.402.063c-1.242.195-2.529.413-3.826.649l-.495.09-.092-.495c-.076-.411-.288-1.091-.845-1.041-.35.032-.616.312-.616.44,0,.638,1.464,8.974,2.464,14.508l2.737,3.273.03.081,6.37,17.122-.168.221c-1.884,2.482-5.455,10.093-5.637,15.078-.204,5.566,3.886,9.719,8.335,13.379,4.01,3.298,6.246,6.621,6.339,6.761l.908,1.362-1.518-.613c-.029-.012-2.472-.99-5.201-1.495,2.19,2.12,5.255,5.529,4.731,7.572-.116.453-.459,1.041-1.429,1.27-2.953.695-6.791-3.519-9.019-9.847-5.342.501-7.818-2.455-10.46-8.026-3.058-6.447-5.116-11.439-6.632-16.096-2.964.891-6.686.844-8.335-1.34-.928-1.229-1.616-3.414-1.062-5.522.338-1.288,1.274-3.037,3.772-4.345-3.886-3.448-3.172-9.502-1.658-15.668-2.068.118-3.355-.022-4.07-.847-.849-.98-.662-2.706.014-5.754,1.007-4.545,3.979-9.2,5.164-10.93-1.027-.205-2.668-.787-3.379-2.436-.778-1.804.206-5.792,3.188-12.866-3.539,1.015-5.496.102-6.636-3.002-.975-2.656-3.864-8.169-7.138-13.18.337,3.037.396,6.286.147,9.036-.258,2.854-.963,6.542-2.861,7.906-2.35,1.687-5.698.628-7.429-.12.338,1.12.805,3.02,1.085,5.658.455,4.284-.075,8.07-4.074,12.506,4.437,3.218,8.428,7.904,7.658,11.451-.355,1.633-1.306,2.251-2.043,2.482-1.514.476-3.563-.226-5.598-1.886-.301,2.803-.245,7.682,1.527,11.908.738,1.76,1.755,3.502,2.738,5.186,1.753,3.002,3.267,5.595,2.872,7.658-.458,2.393-3.954,3.128-6.013,3.354,2.402,1.661,7.702,5.505,10.349,8.81,3.011,3.759,3.139,8.94,3.106,10.453,1.382.378,5.842,1.792,7.604,4.69,1.656,2.725.49,7.813-.087,9.869,1.859-.445,6.169-1.154,9.233.877,3.105,2.059,4.574,6.477,5.068,8.314.581-.435,1.621-1.122,3.471-2.163,2.233-1.256,3.983-1.585,5.351-1.005,1.054.447,1.828,1.396,2.352,2.892,1.331-1.163,2.436-1.606,3.441-1.384.992.217,1.82,1.081,2.519,2.634,1.516-1.333,2.989-1.687,4.124-1.687Z" style="fill:#004f6e; stroke-width:0px;"/><path d="M29.232,181.835c.322-.085.736-.205,1.245-.36.493-.15.89-.278,1.193-.382l-2.173-2.67-.264,3.412Z" style="fill:#004d71; stroke-width:0px;"/><path d="M118.907,185.424c.33.045.759.093,1.287.145.512.05.929.085,1.249.105l-.983-3.299-1.553,3.049Z" style="fill:#004d71; stroke-width:0px;"/><path d="M131.528,167.666c-1.682-1.784-4.353-2.751-7.501-2.709h0c-3.337.04-5.188,1.285-6.153,2.323-1.018,1.095-1.555,2.494-1.473,3.839.066,1.081.132,1.91.182,2.474-1.884-.212-7.038-1.039-16.142-4.21-11.509-4.01-21.644-6.681-33.692-6.681s-22.184,2.671-33.693,6.681c-9.104,3.171-14.259,3.998-16.142,4.21.05-.564.115-1.393.181-2.474.082-1.344-.454-2.743-1.471-3.838-.965-1.038-2.816-2.284-6.155-2.324-3.147-.034-5.818.925-7.501,2.709-1.44,1.528-2.112,3.604-1.941,6.005.38,5.352.501,8.326.501,12.24,0,7.491,5.13,8.52,8.989,8.642,7.02.224,17.339-3.084,27.323-6.281l1.029-.33c9.594-3.076,19.515-6.257,28.88-6.257s19.281,3.18,28.873,6.255l1.027.329c9.667,3.096,19.653,6.294,26.647,6.294.232,0,.46-.004.685-.011,3.859-.123,8.989-1.151,8.989-8.642,0-3.924.122-6.898.5-12.24.17-2.401-.501-4.478-1.941-6.005ZM6.03,170.742v2.817c-1.696-.354-2.673-1.253-2.372-3.19,1.652-2.776,4.778-3.098,7.526-2.709,2.748.39,3.518,1.998,3.157,3.217-.149.505-.708.933-1.454,1.224-.057-.883-.148-2.24-.148-2.24,0,0-.9-1.084-3.338-.778-2.437.304-3.371,1.659-3.371,1.659ZM7.781,170.581c.884-.585,2.471-.669,3.485-.229,0,.916.017,1.611.038,2.125-.695.076-1.419.048-2.068-.11-2.012-.492-2.34-1.202-1.456-1.786ZM16.136,188.624l-4.404.393c-.735.072-1.252.134-1.552.188l-.066-.055-.017-.17.023-.076c.28-.219.43-.354.449-.404.029-.08.025-.351-.012-.812l-.114-1.358-.299-3.069c-.094-.96-.181-1.583-.262-1.869-.032-.115-.108-.183-.228-.204-.062-.01-.3-.007-.714.009l-.066-.055-.04-.412.055-.06c.41-.015,1.041-.065,1.892-.148.759-.074,2.2-.227,4.324-.459l.071.042-.013.68c-.003.216-.004.4-.001.55l.013.567-.054.072-.351.034-.066-.055c-.058-.548-.12-.858-.188-.929-.05-.052-.271-.075-.664-.07-.393.006-.736.023-1.031.052-.351.034-.705.083-1.061.146-.003.428.032,1.017.105,1.768l.122,1.253c.321-.011.58-.026.778-.045l.792-.083c.371-.04.578-.091.621-.152.057-.079.073-.355.047-.83l.055-.066.375-.037.066.055c.028.454.06.868.097,1.243.04.408.091.853.155,1.335l-.055.06-.406.039-.066-.055c-.045-.464-.104-.736-.177-.817-.073-.08-.274-.119-.604-.115-.248.004-.511.019-.79.047-.295.029-.568.066-.82.111l.18,1.846c.052.529.112,1.04.18,1.534l.823-.08c1.178-.115,1.896-.232,2.153-.351.043-.02.073-.046.09-.076.035-.06.061-.185.08-.374l.072-.765.054-.072.369-.036.073.054c-.031.598-.011,1.268.062,2.01l-.055.066ZM25.697,181.374c-.432.598-.995.988-1.689,1.17-.235.062-.48.097-.733.105-.063-.097-.169-.22-.317-.369l.089-.162c.179.012.337,0,.475-.037.396-.104.677-.328.842-.671.165-.343.182-.768.049-1.274-.288-1.094-.924-1.512-1.908-1.253-.118.031-.347.116-.687.256-.011.103.14.749.453,1.937l.818,3.112c.245.933.431,1.534.556,1.803.049.109.135.164.257.165.037-.001.311-.052.821-.153l.082.048.102.388-.043.074c-.543.118-1.19.275-1.939.472-.843.222-1.444.392-1.802.512l-.073-.038-.104-.394.048-.082c.39-.128.612-.207.667-.238.105-.061.153-.151.143-.27-.023-.296-.158-.91-.403-1.844l-.818-3.112c-.245-.933-.431-1.534-.556-1.803-.05-.108-.135-.164-.257-.165-.063,0-.297.04-.704.122l-.076-.049-.102-.388.049-.076c.39-.078.984-.221,1.78-.43.329-.087.802-.217,1.419-.392.616-.175.972-.274,1.066-.299,1.074-.282,1.844-.193,2.309.267.239.239.411.559.516.959.212.808.103,1.511-.329,2.108ZM36.277,183.174c-.868.239-1.391.386-1.57.44-.714.217-1.373.431-1.979.641l-.07-.042-.112-.367.039-.082.497-.183c.21-.077.293-.185.251-.324-.025-.082-.135-.247-.329-.497l-.845-1.084c-.538.155-1.086.318-1.644.488-.303.092-.751.233-1.346.423l-.04.788c-.03.598-.024.965.017,1.101.045.148.163.207.353.179.106-.015.308-.06.608-.134l.076.04.113.372-.04.076c-.725.195-1.19.324-1.395.387-.159.048-.549.18-1.17.395l-.074-.035-.115-.378.046-.078c.392-.145.614-.299.663-.463.05-.163.146-1.076.288-2.739l.362-4.262c.023-.329.058-.825.106-1.488l.826-.252,5.293,6.316c.204.239.36.361.468.366.142.008.333-.025.574-.098l.072.048.113.372-.035.074ZM43.639,179.864c-.384.843-1.129,1.447-2.235,1.81-1.009.332-1.852.423-2.528.274-.571-.128-1.016-.43-1.335-.906-.203-.305-.536-1.164-1.001-2.578l-.49-1.491c-.301-.917-.523-1.506-.664-1.766-.056-.105-.145-.155-.267-.149-.063.004-.295.058-.695.164l-.077-.039-.127-.387.039-.077c.377-.099.974-.282,1.791-.55.832-.273,1.419-.479,1.762-.618l.077.039.127.387-.039.077c-.385.152-.604.246-.657.28-.102.068-.144.16-.126.278.041.294.212.899.514,1.816l.391,1.19c.479,1.456.837,2.326,1.076,2.61.475.561,1.226.672,2.255.334.674-.222,1.145-.56,1.414-1.015.125-.216.196-.417.212-.601.016-.185-.012-.453-.085-.804-.069-.327-.157-.653-.263-.976l-.395-1.202c-.332-1.009-.562-1.697-.692-2.065-.122-.344-.219-.562-.292-.653-.056-.067-.143-.104-.261-.113-.1-.005-.346.043-.739.147l-.077-.039-.127-.387.039-.077c.343-.087.691-.189,1.046-.305.266-.087.772-.267,1.52-.538l.077.039.127.387-.039.077c-.455.149-.671.355-.649.617.013.145.087.445.219.901.099.339.252.824.459,1.456l.585,1.78c.376,1.144.419,2.035.129,2.672ZM53.576,177.451c-.713.667-1.582,1.132-2.607,1.394-2.051.524-3.642.143-4.773-1.141-.524-.594-.888-1.29-1.092-2.088-.329-1.289-.163-2.425.498-3.41.674-1.013,1.77-1.714,3.286-2.101.962-.246,1.948-.311,2.957-.196l.099.069c.005.576.084,1.232.239,1.967l-.038.073-.348.089-.075-.05c-.133-.472-.239-.797-.318-.974-.633-.429-1.412-.524-2.339-.288-.955.244-1.626.737-2.013,1.481-.388.743-.449,1.634-.184,2.671.358,1.403,1.116,2.356,2.274,2.859.617.269,1.358.294,2.222.073.786-.201,1.502-.599,2.149-1.195l.182.098-.118.67ZM58.403,177.251c-.405.036-1.026.116-1.864.241-.834.124-1.45.228-1.847.312l-.063-.052-.06-.403.051-.069c.405-.085.637-.14.695-.165.111-.049.169-.134.171-.253.009-.297-.057-.922-.2-1.876l-.474-3.182c-.142-.954-.261-1.572-.356-1.853-.037-.113-.117-.177-.238-.192-.063-.007-.3.008-.713.045l-.069-.051-.061-.409.052-.063c.389-.033,1.008-.113,1.858-.24.846-.126,1.46-.23,1.841-.311l.068.045.061.409-.051.069c-.406.085-.637.14-.695.165-.112.049-.169.134-.171.253-.009.296.057.922.2,1.876l.474,3.182c.142.954.261,1.572.356,1.853.037.113.117.177.238.192.063.007.3-.008.713-.045l.069.051.06.403-.045.068ZM65.059,175.709c-.307.468-.724.825-1.251,1.073-.483.229-1.066.363-1.751.4-.85.046-1.695-.102-2.534-.446l-.08-.13c.088-.472.108-1.137.061-1.995l.057-.064.389-.021.058.058.008.14c.012.227.053.525.122.895.16.251.433.46.82.625.403.173.818.248,1.243.224.802-.044,1.341-.354,1.618-.929.142-.296.205-.598.188-.906-.028-.518-.265-.877-.711-1.076-.221-.098-.572-.17-1.053-.216-1.09-.107-1.812-.277-2.166-.509-.535-.352-.824-.927-.868-1.725-.045-.83.198-1.507.729-2.032.563-.55,1.37-.855,2.423-.912.947-.052,1.721.058,2.32.33l.051.143c-.071.487-.098,1.069-.081,1.746l-.063.064-.383.021-.064-.057c-.039-.485-.076-.8-.113-.944-.136-.183-.363-.333-.682-.45-.34-.119-.689-.169-1.05-.15-.543.03-.964.197-1.264.502-.281.287-.409.646-.386,1.075.026.466.212.798.56.999.226.13.75.237,1.571.322.086.007.325.035.717.082.241.028.465.074.672.14.417.131.738.349.962.654.241.332.376.755.404,1.269.037.668-.122,1.267-.474,1.798ZM76.481,169.437c-.042.212-.076.392-.1.541l-.09.56-.066.062-.352-.03-.056-.066c.042-.55.036-.866-.018-.948-.04-.06-.253-.123-.64-.188-.387-.065-.728-.11-1.023-.135-.352-.029-.708-.045-1.07-.047-.08.421-.151,1.007-.214,1.758l-.105,1.255c.318.047.575.079.773.095l.794.06c.372.027.585.014.638-.038.071-.067.136-.336.196-.808l.066-.056.376.031.056.066c-.054.451-.097.865-.128,1.24-.034.408-.064.855-.088,1.341l-.065.049-.406-.034-.056-.066c.039-.464.03-.743-.028-.835-.057-.092-.249-.166-.573-.222-.245-.041-.506-.073-.785-.096-.295-.025-.571-.038-.827-.039l-.155,1.848c-.044.529-.077,1.043-.099,1.542l.824.069c1.18.099,1.907.113,2.181.042.046-.012.08-.032.103-.059.045-.053.094-.171.146-.354l.208-.739.066-.062.37.031.062.066c-.138.583-.239,1.246-.301,1.989l-.066.055-4.403-.405c-.735-.062-1.256-.093-1.561-.094l-.056-.066.014-.17.036-.07c.315-.165.486-.27.515-.317.043-.074.088-.341.134-.801l.132-1.356.257-3.073c.081-.962.107-1.59.079-1.885-.01-.119-.073-.199-.187-.242-.059-.021-.294-.061-.704-.12l-.056-.066.035-.412.065-.049c.406.058,1.035.123,1.888.195.76.064,2.205.173,4.336.327l.063.054-.135.666ZM85.374,171.016c-.101.037-.314.189-.639.457s-.758.643-1.298,1.127c-.301.269-.669.604-1.105,1.006.122.407.299.98.53,1.72l.489,1.469c.27.81.45,1.273.54,1.389.09.116.258.2.504.251l.047.072-.08.381-.072.047-1.211-.271c-.198-.045-.546-.112-1.046-.2-.088-.172-.215-.536-.381-1.092l-.76-2.551-.611.575c-.773.729-1.505,1.477-2.196,2.245-.18-.05-.362-.094-.544-.132-.369-.077-.64-.127-.813-.151l-.047-.072.08-.381.073-.053c.33.044.534.051.611.022.135-.05.472-.318,1.012-.801l1-.891c.04-.033.447-.396,1.221-1.087l-.286-.892-.464-1.408c-.331-.997-.614-1.605-.85-1.824-.08-.075-.169-.122-.268-.143-.079-.017-.204-.036-.373-.059l-.065-.076.018-.326.072-.078c.584.002,1.337-.007,2.261-.025.216.215.413.562.59,1.043.084.233.209.627.374,1.184l.412,1.391,1.01-.97c.834-.803,1.382-1.354,1.643-1.652.159.05.318.091.477.124.266.055.537.104.815.145l.047.072-.082.393-.072.047c-.275-.053-.462-.061-.563-.024ZM92.106,172.986c-.941-.294-1.771-.226-2.491.204-.72.429-1.24,1.155-1.559,2.177-.431,1.382-.286,2.591.435,3.627.384.553,1.002.962,1.853,1.228.774.242,1.593.278,2.457.111l.104.179-.452.509c-.957.194-1.94.133-2.95-.182-2.02-.631-3.175-1.789-3.464-3.477-.134-.781-.079-1.564.166-2.35.396-1.269,1.134-2.15,2.213-2.641,1.106-.509,2.406-.53,3.9-.063.948.296,1.822.757,2.62,1.385l.048.111c-.298.493-.575,1.093-.829,1.799l-.07.042-.343-.107-.038-.082c.135-.472.215-.804.241-.995-.313-.697-.927-1.188-1.84-1.473ZM100.803,177.172c.167-.525.234-.834.2-.926-.025-.068-.218-.178-.58-.33-.362-.152-.684-.274-.965-.366-.335-.109-.679-.207-1.031-.292-.175.391-.379.945-.613,1.662l-.391,1.197c.298.119.542.209.731.27l.759.241c.356.112.566.148.63.109.084-.049.21-.296.376-.741l.077-.039.359.117.039.077c-.156.427-.293.819-.41,1.178-.127.389-.258.818-.394,1.285l-.075.033-.387-.126-.039-.077c.145-.443.2-.716.165-.819-.035-.103-.204-.219-.507-.348-.229-.096-.476-.187-.742-.274-.281-.092-.547-.168-.796-.228l-.575,1.763c-.165.505-.315.998-.45,1.478l.786.257c1.125.367,1.83.548,2.113.542.047-.002.085-.013.113-.033.056-.041.131-.145.223-.311l.373-.672.079-.045.353.115.045.079c-.269.535-.518,1.157-.75,1.867l-.077.039-4.192-1.406c-.702-.229-1.201-.379-1.497-.45l-.039-.077.053-.162.052-.06c.344-.088.536-.151.574-.19.059-.062.163-.311.315-.748l.44-1.289.957-2.931c.299-.917.469-1.523.51-1.817.017-.118-.025-.211-.127-.278-.053-.034-.272-.127-.658-.278l-.039-.077.128-.393.075-.033c.382.15.979.358,1.793.623.725.236,2.106.675,4.145,1.314l.048.067-.285.617c-.09.197-.164.365-.222.503l-.216.524-.079.045-.335-.109-.039-.077ZM106.766,185.967l-.075.041-4.234-1.276c-.708-.207-1.212-.342-1.51-.404l-.041-.075.048-.163.05-.062c.341-.099.531-.168.568-.208.056-.06.152-.312.291-.758l.4-1.302.865-2.96c.271-.926.422-1.537.453-1.832.013-.119-.032-.21-.135-.274-.054-.033-.276-.119-.666-.258l-.041-.075.116-.397.074-.036c.394.141.978.324,1.753.55.802.234,1.414.401,1.837.499l.043.07-.118.403-.074.035c-.404-.093-.637-.14-.7-.141-.122-.002-.209.051-.262.158-.133.265-.334.861-.605,1.787l-1.021,3.491c-.149.51-.284,1.007-.404,1.491l.794.232c1.136.332,1.846.491,2.129.477.047-.003.085-.015.112-.037.055-.043.126-.149.213-.318l.352-.683.077-.047.356.104.047.077c-.252.543-.482,1.173-.692,1.889ZM115.096,181.528l-.08.043-.372-.092-.044-.074c.105-.475.162-.787.169-.936-.076-.215-.25-.425-.521-.63-.29-.214-.609-.364-.96-.451-.527-.131-.979-.094-1.355.109-.353.193-.581.497-.684.915-.112.453-.031.826.243,1.119.178.19.647.447,1.407.769.08.032.3.129.661.289.222.097.423.207.601.331.36.248.603.55.728.907.133.388.138.832.014,1.332-.161.649-.488,1.176-.981,1.58-.431.357-.935.577-1.511.66-.529.078-1.126.034-1.791-.131-.826-.205-1.59-.595-2.292-1.17l-.039-.147c.222-.425.437-1.055.644-1.889l.074-.044.378.094.038.072-.034.136c-.055.22-.103.517-.146.891.079.287.279.566.6.838.335.284.709.476,1.122.579.779.193,1.386.055,1.819-.414.223-.241.371-.512.445-.811.125-.504.004-.916-.364-1.237-.182-.158-.497-.33-.944-.516-1.011-.422-1.651-.796-1.921-1.122-.408-.494-.516-1.128-.324-1.904.2-.807.631-1.383,1.293-1.728.699-.361,1.561-.415,2.584-.162.921.228,1.628.56,2.122.996l.006.152c-.21.445-.407.994-.59,1.646ZM124.96,189.309l-.06.055c-.893-.113-1.433-.178-1.618-.196-.743-.073-1.434-.129-2.074-.168l-.049-.066.038-.381.067-.061.53.022c.223.01.342-.058.356-.203.008-.085-.03-.28-.114-.586l-.364-1.325c-.556-.063-1.125-.123-1.706-.18-.315-.031-.783-.073-1.405-.126l-.339.712c-.257.541-.392.882-.406,1.023-.015.153.071.254.258.3.103.027.308.063.613.109l.055.066-.038.387-.066.055c-.744-.098-1.223-.157-1.437-.178-.166-.016-.576-.045-1.232-.085l-.055-.06.039-.393.072-.054c.418.017.681-.041.79-.173.109-.132.548-.938,1.317-2.419l1.969-3.797c.147-.295.37-.74.669-1.334l.859.085,2.464,7.864c.097.299.194.471.291.518.128.062.318.105.568.129l.048.072-.038.387ZM124.259,172.367c-.649.158-1.372.186-2.067.11.021-.514.038-1.209.038-2.125,1.014-.44,2.601-.356,3.485.229.883.584.556,1.294-1.457,1.786ZM127.466,173.559v-2.817s-.932-1.355-3.371-1.659c-2.437-.305-3.337.778-3.337.778,0,0-.091,1.357-.149,2.24-.747-.291-1.305-.719-1.454-1.224-.359-1.219.409-2.827,3.158-3.217,2.748-.389,5.873-.067,7.525,2.709.302,1.936-.677,2.836-2.372,3.19Z" style="fill:#004d71; stroke-width:0px;"/><path d="M167.053,70.692c0-2.979.459-5.629,1.376-7.95.917-2.321,2.212-4.281,3.886-5.88,1.673-1.599,3.689-2.815,6.047-3.646,2.357-.831,4.976-1.246,7.857-1.246,1.303,0,2.598.06,3.886.181,1.287.121,2.486.266,3.596.434,1.111.169,2.092.342,2.945.519.853.177,1.496.314,1.931.41l-.579,8.899h-5.648l-1.472-5.893c-.112-.105-.277-.229-.495-.373-.217-.143-.519-.278-.905-.406-.386-.128-.865-.233-1.436-.316-.572-.083-1.252-.125-2.04-.125-1.496,0-2.833.308-4.007.924-1.175.616-2.172,1.532-2.993,2.748-.821,1.216-1.448,2.728-1.883,4.537-.434,1.808-.652,3.905-.652,6.291,0,2.183.169,4.217.507,6.104s.873,3.527,1.605,4.923c.732,1.395,1.669,2.49,2.812,3.285,1.142.795,2.518,1.193,4.128,1.193.547,0,1.094-.036,1.641-.109.547-.072,1.058-.177,1.533-.314.474-.137.905-.31,1.291-.519.386-.209.708-.45.966-.724v-10.162l-4.658-.555v-3.621h15.159v3.621l-2.51.459v12.866c-.644,0-1.433.134-2.366.402-.933.268-2,.56-3.198.877-1.199.317-2.522.601-3.971.853-1.449.252-2.993.377-4.635.377-2.848,0-5.375-.462-7.579-1.387-2.205-.925-4.059-2.195-5.564-3.81-1.505-1.615-2.643-3.524-3.415-5.728-.772-2.203-1.159-4.582-1.159-7.138Z" style="fill:#004d71; stroke-width:0px;"/><path d="M203.912,85.497l3.235-.483v-32.056l-3.549-.628v-2.969l9.752-1.183h.121l1.448,1.062v35.773l3.259.483v3.234h-14.266v-3.234Z" style="fill:#004d71; stroke-width:0px;"/><path d="M221.026,75.089c0-2.174.322-4.116.965-5.827.644-1.711,1.557-3.16,2.74-4.347,1.183-1.187,2.599-2.096,4.249-2.729,1.649-.632,3.48-.948,5.491-.948,3.428,0,6.038.8,7.833,2.399,1.794,1.599,2.731,3.864,2.812,6.795,0,1.022-.028,1.91-.085,2.665-.056.755-.149,1.429-.277,2.021h-15.593c.096,1.529.338,2.844.724,3.947.386,1.103.893,2.008,1.521,2.716.628.708,1.36,1.231,2.197,1.569.836.338,1.762.507,2.776.507.644,0,1.304-.064,1.979-.193.676-.128,1.324-.293,1.943-.495.619-.201,1.19-.422,1.714-.664.523-.241.969-.475,1.34-.7l1.4,2.994c-.386.419-.942.861-1.666,1.328-.724.467-1.557.893-2.498,1.279s-1.959.708-3.053.965c-1.094.258-2.213.386-3.355.386-2.317,0-4.305-.335-5.962-1.006-1.657-.671-3.021-1.611-4.091-2.821-1.071-1.21-1.855-2.652-2.353-4.324-.499-1.672-.748-3.511-.748-5.515ZM237.416,71.811c0-.22.004-.509.012-.867.008-.358.012-.648.012-.868,0-.799-.061-1.529-.181-2.19s-.33-1.233-.628-1.715-.692-.858-1.183-1.126c-.491-.269-1.098-.403-1.823-.403-.628,0-1.211.097-1.75.289-.539.193-1.01.554-1.412,1.085-.402.53-.724,1.26-.966,2.19-.241.93-.378,2.131-.41,3.605h8.328Z" style="fill:#004d71; stroke-width:0px;"/><path d="M249.172,85.598l2.8-.421v-18.006l-2.969-.935v-3.964l8.714-1.131h.121l1.328,1.084v1.707l-.048,1.076c.531-.474,1.154-.94,1.871-1.399.716-.459,1.5-.862,2.353-1.21.853-.348,1.754-.628,2.703-.842s1.915-.32,2.897-.32c1.496,0,2.751.194,3.766.581,1.014.387,1.83,1.007,2.45,1.86.619.854,1.066,1.96,1.34,3.319.273,1.359.411,3.018.411,4.977v13.155l2.896.421v3.18h-13.421v-3.133l2.534-.444v-13.184c0-1.122-.052-2.075-.157-2.857-.105-.782-.302-1.423-.592-1.92-.29-.498-.68-.861-1.171-1.091s-1.122-.344-1.895-.344c-.515,0-1.022.067-1.521.2-.499.134-.97.307-1.412.52-.443.213-.857.449-1.243.706-.386.258-.716.511-.99.76v17.211l2.8.444v3.133h-13.565v-3.133Z" style="fill:#004d71; stroke-width:0px;"/><path d="M293.296,88.756c-1.481,0-2.873-.254-4.176-.762-1.304-.508-2.438-1.294-3.404-2.357-.965-1.063-1.73-2.418-2.293-4.066-.564-1.648-.845-3.612-.845-5.892,0-1.941.314-3.785.941-5.533.628-1.748,1.561-3.281,2.8-4.598,1.239-1.317,2.776-2.364,4.611-3.142,1.834-.778,3.958-1.167,6.372-1.167.515,0,1.038.033,1.569.097.531.065,1.029.145,1.496.241v-7.942l-4.659-.628v-3.09l10.669-1.038h.193l1.521,1.134v34.998h2.583v3.043c-.37.071-.805.146-1.303.223-.499.078-1.026.152-1.581.223-.555.071-1.118.131-1.69.181-.572.05-1.122.074-1.653.074-.547,0-1.022-.033-1.424-.1s-.736-.194-1.002-.38-.467-.447-.603-.782c-.137-.335-.205-.771-.205-1.307v-.983c-.419.498-.909.962-1.472,1.392s-1.187.807-1.871,1.131-1.412.577-2.184.758c-.772.181-1.569.271-2.39.271ZM296.241,84.53c.499,0,.957-.053,1.376-.158.418-.106.801-.241,1.147-.407s.652-.351.917-.554.495-.411.688-.622v-16.859c-.209-.367-.624-.682-1.243-.943-.62-.261-1.316-.392-2.088-.392-.837,0-1.622.176-2.353.528-.733.352-1.376.93-1.931,1.734-.555.804-.998,1.868-1.328,3.193-.33,1.325-.503,2.951-.519,4.88-.033,1.684.085,3.132.35,4.341.266,1.21.636,2.205,1.111,2.986.474.781,1.042,1.355,1.702,1.723.66.367,1.384.551,2.172.551Z" style="fill:#004d71; stroke-width:0px;"/><path d="M313.5,75.17c0-2.326.378-4.363,1.134-6.111.756-1.748,1.774-3.2,3.053-4.355s2.752-2.021,4.417-2.599c1.666-.578,3.407-.866,5.226-.866,2.076,0,3.926.312,5.552.936s2.997,1.521,4.116,2.692c1.118,1.171,1.975,2.595,2.57,4.274.595,1.679.893,3.573.893,5.684,0,2.403-.378,4.478-1.134,6.226-.756,1.749-1.77,3.192-3.041,4.332-1.272,1.14-2.744,1.987-4.417,2.542-1.674.554-3.42.832-5.238.832-2.076,0-3.927-.312-5.552-.936-1.626-.624-2.997-1.521-4.115-2.692-1.119-1.171-1.976-2.595-2.571-4.274-.595-1.679-.893-3.573-.893-5.684ZM327.066,85.304c1.657,0,2.884-.797,3.681-2.392.796-1.595,1.195-4.1,1.195-7.517,0-1.731-.089-3.261-.266-4.59s-.467-2.445-.869-3.348c-.402-.904-.917-1.591-1.545-2.061-.628-.471-1.4-.706-2.317-.706-1.674,0-2.921.797-3.741,2.392-.821,1.595-1.231,4.1-1.231,7.516,0,1.731.096,3.261.289,4.59.193,1.329.495,2.445.905,3.348.411.904.937,1.591,1.581,2.061s1.416.706,2.317.706Z" style="fill:#004d71; stroke-width:0px;"/><path d="M343.721,64.995l-2.269-.57v-3.162h13.373v3.162l-3.331.594,3.307,12.284,1.014,4.966.893-4.96,4.49-16.047h6.566l4.973,16.023,1.014,4.936,1.014-4.871,3.138-12.308-3.572-.618v-3.162h10.935v3.162l-2.414.57-7.411,23.737h-6.324l-4.948-15.492-.966-5.513-.724,5.513-4.659,15.492h-6.348l-7.748-23.737Z" style="fill:#004d71; stroke-width:0px;"/><path d="M386.18,85.497l3.234-.483v-18.538l-3.259-.99v-3.693l9.511-1.207h.121l1.496,1.062v23.39l3.09.459v3.234h-14.193v-3.234ZM391.116,56.616c-.507-.201-.946-.483-1.315-.845-.371-.362-.656-.788-.857-1.279-.201-.491-.302-1.018-.302-1.581,0-.643.1-1.255.302-1.834.201-.579.499-1.086.893-1.521.394-.435.881-.776,1.46-1.026.579-.249,1.239-.374,1.979-.374h.024c.708,0,1.331.109,1.87.326.539.217.994.511,1.364.881.37.37.652.801.845,1.291.193.491.289,1.01.289,1.557,0,.66-.101,1.276-.302,1.847-.201.572-.503,1.07-.905,1.497-.402.427-.905.76-1.509,1.002-.604.241-1.315.362-2.136.362h-.024c-.612,0-1.171-.1-1.678-.302Z" style="fill:#004d71; stroke-width:0px;"/><path d="M403.342,75.089c0-2.174.322-4.116.965-5.827.644-1.711,1.557-3.16,2.74-4.347,1.183-1.187,2.599-2.096,4.249-2.729,1.649-.632,3.48-.948,5.491-.948,3.428,0,6.038.8,7.833,2.399,1.794,1.599,2.731,3.864,2.812,6.795,0,1.022-.028,1.91-.085,2.665-.056.755-.149,1.429-.277,2.021h-15.593c.096,1.529.338,2.844.724,3.947.386,1.103.893,2.008,1.521,2.716.628.708,1.36,1.231,2.197,1.569.836.338,1.762.507,2.776.507.644,0,1.304-.064,1.979-.193.676-.128,1.324-.293,1.943-.495.619-.201,1.19-.422,1.714-.664.523-.241.969-.475,1.34-.7l1.4,2.994c-.386.419-.942.861-1.666,1.328-.724.467-1.557.893-2.498,1.279s-1.959.708-3.053.965c-1.094.258-2.213.386-3.355.386-2.317,0-4.305-.335-5.962-1.006-1.657-.671-3.021-1.611-4.091-2.821-1.071-1.21-1.855-2.652-2.353-4.324-.499-1.672-.748-3.511-.748-5.515ZM419.732,71.811c0-.22.004-.509.012-.867.008-.358.012-.648.012-.868,0-.799-.061-1.529-.181-2.19s-.33-1.233-.628-1.715-.692-.858-1.183-1.126c-.491-.269-1.098-.403-1.823-.403-.628,0-1.211.097-1.75.289-.539.193-1.01.554-1.412,1.085-.402.53-.724,1.26-.966,2.19-.241.93-.378,2.131-.41,3.605h8.328Z" style="fill:#004d71; stroke-width:0px;"/><path d="M205.182,122.278c0-2.938.467-5.558,1.4-7.86.933-2.301,2.217-4.246,3.85-5.833,1.633-1.587,3.564-2.796,5.793-3.629,2.229-.833,4.646-1.249,7.253-1.249,1.175,0,2.333.06,3.476.181,1.142.121,2.216.253,3.222.398,1.006.145,1.907.286,2.704.422.796.137,1.444.229,1.943.278l-.579,10.516h-5.166l-1.69-7.077c-.241-.312-.716-.594-1.424-.844-.708-.25-1.738-.375-3.09-.375-1.272,0-2.426.301-3.464.902-1.038.601-1.923,1.5-2.655,2.695-.733,1.195-1.3,2.691-1.702,4.488-.402,1.797-.604,3.89-.604,6.281,0,2.141.173,4.144.519,6.011.346,1.867.881,3.496,1.605,4.886.724,1.391,1.637,2.488,2.74,3.292,1.102.805,2.418,1.207,3.947,1.207.692,0,1.292-.047,1.798-.14s.941-.214,1.303-.362.66-.311.893-.491c.233-.179.431-.362.592-.55l2.317-5.181,4.683.434-.917,7.946c-.772.079-1.493.217-2.16.414-.668.197-1.4.406-2.196.627-.797.221-1.702.414-2.716.579-1.014.166-2.245.248-3.693.248-2.977,0-5.588-.42-7.833-1.261-2.245-.84-4.12-2.046-5.624-3.617-1.505-1.571-2.635-3.484-3.392-5.738-.756-2.254-1.134-4.788-1.134-7.6Z" style="fill:#004d71; stroke-width:0px;"/><path d="M237.986,126.909c0-2.326.378-4.363,1.134-6.111s1.774-3.2,3.053-4.355c1.279-1.155,2.752-2.021,4.417-2.599,1.666-.578,3.407-.866,5.226-.866,2.076,0,3.926.312,5.552.936s2.997,1.521,4.116,2.692c1.118,1.171,1.975,2.595,2.57,4.275.595,1.679.893,3.573.893,5.684,0,2.403-.378,4.479-1.134,6.226-.756,1.749-1.77,3.193-3.041,4.332-1.272,1.14-2.744,1.988-4.417,2.542-1.674.554-3.42.832-5.238.832-2.076,0-3.927-.312-5.552-.936-1.626-.624-2.997-1.521-4.115-2.692-1.119-1.17-1.976-2.595-2.571-4.274-.595-1.679-.893-3.574-.893-5.684ZM251.552,137.043c1.657,0,2.884-.797,3.681-2.391.796-1.595,1.195-4.1,1.195-7.517,0-1.731-.089-3.261-.266-4.59s-.467-2.445-.869-3.348c-.402-.904-.917-1.591-1.545-2.061-.628-.471-1.4-.706-2.317-.706-1.674,0-2.921.797-3.741,2.392-.821,1.595-1.231,4.1-1.231,7.516,0,1.731.096,3.261.289,4.59s.495,2.445.905,3.348c.411.904.937,1.59,1.581,2.061.644.47,1.416.706,2.317.706Z" style="fill:#004d71; stroke-width:0px;"/><path d="M267.965,137.236l3.235-.483v-32.056l-3.549-.628v-2.969l9.752-1.183h.121l1.448,1.062v35.773l3.259.483v3.234h-14.266v-3.234Z" style="fill:#004d71; stroke-width:0px;"/><path d="M284.959,137.236l3.235-.483v-32.056l-3.549-.628v-2.969l9.752-1.183h.121l1.448,1.062v35.773l3.259.483v3.234h-14.266v-3.234Z" style="fill:#004d71; stroke-width:0px;"/><path d="M302.073,126.828c0-2.174.322-4.116.965-5.827.644-1.711,1.557-3.16,2.74-4.347,1.183-1.187,2.599-2.096,4.249-2.729,1.649-.632,3.48-.948,5.491-.948,3.428,0,6.038.8,7.833,2.399,1.794,1.599,2.731,3.864,2.812,6.795,0,1.022-.028,1.91-.085,2.665-.056.755-.149,1.429-.277,2.021h-15.593c.096,1.529.338,2.845.724,3.947.386,1.103.893,2.008,1.521,2.716.628.708,1.36,1.231,2.197,1.569.836.338,1.762.507,2.776.507.644,0,1.304-.064,1.979-.193.676-.128,1.324-.293,1.943-.495.619-.201,1.19-.423,1.714-.664.523-.241.969-.474,1.34-.7l1.4,2.994c-.386.419-.942.861-1.666,1.328-.724.467-1.557.893-2.498,1.279s-1.959.708-3.053.966c-1.094.258-2.213.386-3.355.386-2.317,0-4.305-.335-5.962-1.006s-3.021-1.611-4.091-2.821c-1.071-1.21-1.855-2.652-2.353-4.324-.499-1.672-.748-3.511-.748-5.515ZM318.463,123.549c0-.22.004-.509.012-.867.008-.358.012-.648.012-.868,0-.799-.061-1.529-.181-2.19s-.33-1.233-.628-1.715c-.298-.482-.692-.858-1.183-1.126-.491-.269-1.098-.403-1.823-.403-.628,0-1.211.097-1.75.289-.539.193-1.01.554-1.412,1.085-.402.53-.724,1.26-.966,2.19-.241.93-.378,2.131-.41,3.605h8.328Z" style="fill:#004d71; stroke-width:0px;"/><path d="M329.374,145.805c0-.708.121-1.4.362-2.076s.567-1.3.978-1.871c.41-.571.893-1.086,1.448-1.545.555-.459,1.147-.825,1.774-1.098-1.545-.901-2.317-2.261-2.317-4.079,0-.547.092-1.094.277-1.642.185-.547.447-1.062.785-1.545.338-.483.748-.933,1.231-1.352.483-.418,1.03-.772,1.642-1.062-.95-.349-1.758-.785-2.426-1.308-.668-.523-1.219-1.118-1.653-1.785s-.753-1.395-.953-2.184c-.201-.788-.302-1.63-.302-2.525,0-1.38.329-2.612.989-3.696.66-1.084,1.557-2.002,2.692-2.752s2.446-1.323,3.934-1.717c1.488-.394,3.069-.592,4.743-.592h.024c2.124,0,3.926.202,5.407.603,1.48.402,2.695,1.006,3.645,1.811.193-.25.462-.515.809-.797.346-.281.752-.543,1.219-.785.467-.242.981-.441,1.545-.597s1.159-.235,1.786-.235h1.497v5.89h-4.707c.241.8.362,1.666.362,2.599,0,1.362-.274,2.599-.821,3.709-.547,1.111-1.348,2.066-2.402,2.865-1.054.8-2.341,1.418-3.862,1.854-1.521.437-3.246.655-5.177.655h-.024c-.74,0-1.44-.024-2.1-.072-.66-.048-1.279-.136-1.859-.265-.193.386-.346.801-.458,1.243-.113.443-.169.817-.169,1.122,0,.531.1.962.302,1.292.201.33.515.592.941.785.426.193.977.322,1.653.386.676.064,1.488.096,2.438.096h4.924c3.395,0,5.958.615,7.688,1.847s2.595,3.158,2.595,5.781c0,1.094-.201,2.116-.603,3.066-.402.949-.958,1.822-1.666,2.619-.708.796-1.549,1.505-2.522,2.124-.974.619-2.032,1.147-3.174,1.581-1.143.434-2.35.764-3.621.989-1.272.225-2.559.338-3.862.338h-.024c-2.382,0-4.397-.197-6.047-.592-1.65-.394-2.99-.933-4.019-1.617-1.03-.684-1.774-1.492-2.233-2.426-.459-.933-.688-1.947-.688-3.041ZM337.725,140.326c-.193.418-.358.921-.495,1.509-.137.587-.205,1.299-.205,2.136,0,.901.116,1.706.35,2.414.233.708.599,1.316,1.098,1.823.499.507,1.138.893,1.919,1.158.78.266,1.717.398,2.812.398h.049c.772,0,1.541-.109,2.305-.326.764-.217,1.456-.543,2.076-.977.619-.435,1.118-.99,1.496-1.666.378-.676.567-1.472.567-2.39,0-.724-.081-1.331-.241-1.822-.161-.491-.431-.893-.809-1.207-.378-.314-.881-.539-1.509-.676-.628-.137-1.409-.205-2.342-.205h-4.441c-.483,0-.941-.016-1.376-.048-.434-.032-.853-.072-1.255-.121ZM342.456,127.219c.74,0,1.364-.132,1.871-.398.507-.265.913-.637,1.219-1.116.305-.479.527-1.057.664-1.735.137-.678.205-1.429.205-2.255,0-1.916-.322-3.316-.966-4.2-.644-.884-1.682-1.327-3.114-1.327h-.024c-2.8,0-4.2,1.761-4.2,5.284,0,.87.076,1.658.23,2.366.153.707.398,1.312.736,1.813.338.501.78.888,1.328,1.161.547.273,1.223.409,2.028.409h.024Z" style="fill:#004d71; stroke-width:0px;"/><path d="M360.512,126.828c0-2.174.322-4.116.965-5.827.644-1.711,1.557-3.16,2.74-4.347,1.183-1.187,2.599-2.096,4.249-2.729,1.649-.632,3.48-.948,5.491-.948,3.428,0,6.038.8,7.833,2.399,1.794,1.599,2.731,3.864,2.812,6.795,0,1.022-.028,1.91-.085,2.665-.056.755-.149,1.429-.277,2.021h-15.593c.096,1.529.338,2.845.724,3.947.386,1.103.893,2.008,1.521,2.716.628.708,1.36,1.231,2.197,1.569.836.338,1.762.507,2.776.507.644,0,1.304-.064,1.979-.193.676-.128,1.324-.293,1.943-.495.619-.201,1.19-.423,1.714-.664.523-.241.969-.474,1.34-.7l1.4,2.994c-.386.419-.942.861-1.666,1.328-.724.467-1.557.893-2.498,1.279s-1.959.708-3.053.966c-1.094.258-2.213.386-3.355.386-2.317,0-4.305-.335-5.962-1.006s-3.021-1.611-4.091-2.821c-1.071-1.21-1.855-2.652-2.353-4.324-.499-1.672-.748-3.511-.748-5.515ZM376.902,123.549c0-.22.004-.509.012-.867.008-.358.012-.648.012-.868,0-.799-.061-1.529-.181-2.19s-.33-1.233-.628-1.715c-.298-.482-.692-.858-1.183-1.126-.491-.269-1.098-.403-1.823-.403-.628,0-1.211.097-1.75.289-.539.193-1.01.554-1.412,1.085-.402.53-.724,1.26-.966,2.19-.241.93-.378,2.131-.41,3.605h8.328Z" style="fill:#004d71; stroke-width:0px;"/></g></svg>