<svg xmlns="http://www.w3.org/2000/svg" width="213" height="283" viewBox="0 0 213 283">
  <g fill="none" fill-rule="evenodd">
    <path fill="#F2AF36" d="M196.493 282.765l-3.865-2.701c-4.806-3.373-10.173-3.381-16.397-3.402h-.59l-88.181-.218-86.777.153 5.428-5.666c.923-.967 2.019-1.973 3.175-3.031 2.777-2.529 5.919-5.4 7.665-8.675 2.273-4.255 3.929-10.622 3.929-15.16V37.25c0-5.286-1.527-10.036-4.677-14.505-3.591-5.119-6.596-8.247-8.791-10.521L1.74 6.323l169.929.042c1.04 0 2.071.01 3.082.022.979.009 1.938.018 2.879.018 5.968 0 10.025-.458 13.11-2.8l3.853-2.931 15.415 52.013-6.702-3.081c-2.885-1.326-5.196-2.671-8.128-4.369-1.874-1.092-3.996-2.329-6.685-3.792-10.619-5.801-20.163-8.856-27.597-8.856l-102.171.127c0 5.933.021 19.067.037 31.87.026 13.932.052 27.986.052 33.76v24.322c36.084-.012 106.417-.191 119.403-.268 1.477-.235 3.129-.36 4.867-.493 2.803-.214 5.98-.463 8.706-1.207a59.883 59.883 0 0 1 4.398-1.048c1.443-.295 2.244-.462 3.96-1.159l6.192-2.501-13.858 52.562-4.113-6.339c-5.435-8.358-10.652-12.603-15.536-12.603l-114.019-.052v64.558l.167 35.45 82.346.058c.9 0 1.884.003 2.928.012 1.246.009 2.578.017 3.985.017 9.865 0 22.055-.407 28.685-3.531 6.565-3.093 12.374-6.65 17.997-10.101 1.51-.928 2.988-1.831 4.438-2.705l.929-.552c2.297-1.382 3.454-2.08 5.264-3.068l6.981-3.813-16.041 56.88"/>
    <path fill="#1B2244" d="M87.461 269.758l88.787.214c5.376.013 10.901.022 16.234 2.366l9.203-32.609a844.03 844.03 0 0 0-3.262 1.995c-5.509 3.378-11.757 7.204-18.644 10.451-7.794 3.674-20.316 4.17-31.539 4.17-1.416 0-2.768-.014-4.022-.022-1.033 0-2-.007-2.89-.007l-89.015-.061-.185-42.119v-71.265l120.709.046c5.864.006 11.432 3.232 16.893 9.832l6.951-26.364c-.822.171-1.793.397-3.12.765-3.343.916-6.861 1.19-9.964 1.425-.591.038-1.177.09-1.73.132-.461.223-1.005.352-1.66.36l-.74.004c-.638.014-1.584.018-2.796.026-2.412.014-5.905.023-10.219.035-8.611.038-20.497.068-33.56.098-23.617.064-55.949.125-75.892.125h-4.872V98.346c0-5.773-.03-19.82-.051-33.748-.043-23.599-.056-34.779-.043-35.331l.116-3.23 108.703-.138c10.847 0 22.758 5.261 30.842 9.673 2.768 1.502 4.93 2.765 6.847 3.878.232.132.459.27.685.393l-8.483-28.616c-4.138 1.683-8.701 1.866-13.113 1.866-.963 0-1.947-.012-2.94-.021-.998-.009-2.009-.021-3.022-.021l-154.503-.034a82.73 82.73 0 0 1 4.506 5.88c3.963 5.642 5.893 11.641 5.893 18.353v206.815c0 5.675-1.895 13.038-4.715 18.318-1.537 2.864-3.716 5.346-5.898 7.499l70.509-.124"/>
    <path fill="#F2AF36" d="M130.436 18.358c.573.907 1.498 1.965 3.085 2.341.441.136.925.215 1.425.215.852 0 1.662-.201 2.372-.382.5-.129 1.023-.261 1.382-.261.061 0 .103.012.103.012h.022c.007.01.028.031.059.066l.042.054.061.073c.064.073.133.176.223.288.402.555 1.009 1.395 2.003 1.857l1.704.796 1.402-1.241c.185-.16.309-.21.54-.21.702 0 1.777.51 2.693.951.059.033.132.064.188.092l.479 5.046.124 1.251.993.766c.852.65 1.853.981 2.984.981.761 0 1.493-.146 2.245-.308.442-.096.896-.199 1.221-.199.056 0 .103.014.124.014l.009-.014c.05.066.153.22.278.523.138.596.329 1.203.523 1.827.543 1.7.855 2.873.32 3.604l-.175.228-.121.26-1.266 2.71-.603 1.31.679 1.267c1.131 2.088 3.082 4.828 6.313 7.04-1.16.638-2.738 1.284-3.599 1.631-1.529.628-2.663 1.104-3.415 1.613l-3.864 2.611 3.393 1.891c.885 1.593 3.005 2.492 5.937 3.575.77.286 1.741.646 2.393.958-.155.317-.322.641-.472.955-1.104 2.191-2.606 5.187-.69 8.037 1.118 2.062 3.026 2.513 4.421 2.846.237.056.446.108.648.159-.587.595-1.374 1.151-2.226 1.75-1.969 1.392-4.421 3.113-4.956 6.266l-.12.733.244.692c.385 1.104 1.031 2.02 1.609 2.863.985 1.408 1.366 2.068 1.122 2.949l-.044.159-.008.033a.097.097 0 0 1-.042.028c-.331.221-1.139.479-2.32.479-.432 0-.864-.035-1.259-.103l-2.41-.411-.792 2.31a495.91 495.91 0 0 0-2.165 6.57l-.03.108c-2.162 6.672-4.203 12.967-7.168 18.87l-.09.18-.065.183c-1.266 3.715-1.481 7.336-1.691 10.867-.119 2.003-.251 4.061-.556 6.283l-3.761.03 1.751 3.98c.379.882.871 1.683 1.304 2.401.779 1.277 1.507 2.492 1.687 3.933l.099.78.479.621c.35.467 1.15 2.281 1.338 3.959l.151 1.271 1.047.735c3.972 2.812 5.775 5.463 8.522 9.497 1.961 2.894 4.4 6.485 8.368 11.069l.174.214.225.176c.226.174.444.393.688.637.761.728 1.712 1.648 3.069 2.106l1.167.394 1.087-.573c.237-.124.463-.237.678-.34 1.224-.59 2.747-1.325 3.616-3.663l.176-.47.005-.502c.068-9.539-4.379-18.801-8.699-27.763-3.975-8.283-8.102-16.846-8.349-25.261v-.085l-.009-.089c-.611-6.715 1.566-16.081 6.912-20.969l.073-.063.06-.073c2.123-2.205 5.368-2.444 6.668-2.444.608 0 1.228.051 1.793.141 5.068 1.81 8.411 4.888 10.795 9.934 1.737 9.459.495 18.083-3.586 24.939-.262.352-.502.577-.711.697-.651-1.335-.904-2.808-1.165-4.365-.462-2.714-.984-5.778-3.801-8.114-1.091-1.897-2.097-4.576-1.146-7.109l.046-.104.03-.103c.801-2.764.932-5.101.42-7.567l-.261-1.245-1.104-.642a4.027 4.027 0 0 0-2.068-.569c-.65 0-1.194.15-1.767.303-.151.04-.313.091-.492.125l-.912.21-.616.702c-1.827 2.093-3.458 4.896-4.708 8.11l-.15.385-.035.416c-1.108 13.212 5.055 26.287 11 38.944 7.388 15.705 15.019 31.945 7.452 47.301-.331.676-1.139 1.302-1.669 1.302h-.331c-.993 0-4.133-1.389-7.283-4.74l-4.863 2.667c.331 1.294.646 2.625.981 3.998 2.444 10.109 4.969 20.547 12.005 26.391.35 2.225-.279 4.634-.934 7.191-.984 3.792-2.088 8.07.112 12.317-.427 1.609-.787 3.32-1.125 4.994-1.065 5.126-2.269 10.91-5.92 13.641-2.649.998-5.436 1.137-8.059 1.137-.715 0-1.417-.012-2.143-.026-.742-.012-1.5-.016-2.256-.016-1.031 0-1.906.016-2.731.063-3.146 0-5.778-.115-9.044-.307l-.929-1.374-1.694.155c-.3.03-.608.072-.917.119-.372.055-.726.106-1.027.106-.171 0-.324-.012-.457-.054-.155-.288-.308-.89-.279-1.815l.112-3.621-3.549.727-3.265.668c.907-5.487 5.572-9.912 6.702-10.919l.359-.259c.861-.643 2.021-1.507 2.911-1.61 2.512 2.075 6.257 4.343 10.657 4.343 1.477 0 2.932-.26 4.327-.779l.065-.026.069-.033c2.735-1.174 3.992-5.68 4.125-6.194l.051-.175.017-.172c1.127-8.331-4.092-11.28-8.687-13.897-1.996-1.116-3.874-2.195-5.539-3.683l-.065-.057-.059-.055c-3.412-2.721-3.412-2.721-5.98-5.932-1.601-1.999-4.271-5.337-9.368-11.308l-.42-.493-.595-.263c-1.19-.536-1.93-1.82-2.782-3.313-.89-1.58-1.908-3.365-3.723-4.653l-.655-.467-.808-.052a21.395 21.395 0 0 0-1.345-.047c-4.285 0-7.452 1.327-9.211 3.916-3.128 4.855-.486 9.69 1.845 13.961 1.571 2.86 3.057 5.573 2.923 8.098-.88 1.413-2.824 1.622-5.82 1.789-1.763.091-3.583.202-5.141.826-1.069.425-2.049 1.083-2.992 1.718-1.113.743-2.369 1.595-3.235 1.595-.08 0-.171-.012-.235-.021-.202-.052-.714-.343-1.028-.517-1.048-.592-2.079-1.122-3.239-1.122-.676 0-1.986.201-2.983 1.571-.639.868-1.285 1.176-2.482 1.176-.742 0-1.58-.124-2.466-.252a29.15 29.15 0 0 0-2.482-.292c-1.413-.094-2.861-.17-4.324-.247-7.041-.36-14.321-.728-20.351-3.578-1.023-1.665-2.871-1.858-3.836-1.947-.059-.014-.141-.021-.226-.034.587-5.138 1.961-11.813 6.288-16.06l.085-.08.068-.082c1.408-1.614 2.944-2.679 4.228-2.961l4.144 2.425c1.19.686 2.47 1.764 3.848 2.911 3.196 2.679 6.826 5.71 11.342 5.71.702 0 1.414-.077 2.111-.227l.252-.055.23-.091c2.543-1.049 4.165-2.503 5.282-4.707l.214-.425.064-.47c.553-3.946-.538-9.107-2.708-12.831l-.397-.685-.699-.381c-1.109-.608-2.247-1.096-3.475-1.613-2.813-1.207-5.273-2.252-6.477-4.468.338-8.779 2.432-15.733 5.761-19.114l.087-.103.094-.104c1.711-2.115 3.393-3.15 5.979-3.672l3.466-.697-1.407-3.254c-1.169-2.714-2.68-4.489-4.486-5.288l-.235-.103-.24-.065a7.392 7.392 0 0 0-1.828-.205c-.655 0-1.292.064-1.904.12-.517.051-1.062.103-1.541.103-.817 0-1.232-.138-1.545-.408l-.806-2.55-.83-2.637-2.658.728a8.43 8.43 0 0 0-.891.308c-.127.051-.303.124-.428.159a2.588 2.588 0 0 1-.197-.237c-.354-.979-.218-2.005.035-3.556.108-.689.223-1.403.278-2.149l.262-3.655-3.613.626a2.89 2.89 0 0 1-.193.033l-.363-.051-.364.039c-.376.043-.74.068-1.078.068-2.975 0-4.34-1.605-6.891-4.947-.291-.394-.599-.784-.911-1.183l-.792-1.012-1.293-.082a7.995 7.995 0 0 0-.467-.012c-1.01 0-1.994.183-2.999.368-.81.149-1.653.299-2.364.299-.624 0-1.009-.111-1.296-.308l-.719-2.761-.774-2.923-2.877.928c-.8.258-1.558.39-2.272.39a4.912 4.912 0 0 1-2.886-.895l-.483-.373c-1.181-.895-2.646-2.01-2.851-3.196l-.812-1.765-1.785-.602c-1.075-.085-2.204-.107-3.404-.133-3.308-.064-7.039-.146-9.41-1.691-.526-.918-.601-2.301-.676-3.644-.014-.255-.026-.493-.047-.737 1.498-1.986.983-3.788.662-4.503-.39-1.125-.834-2.71-.517-4.074l.411-1.733-1.387-1.139c-.326-.267-.552-.471-.716-.706.707-3.34 2.941-6.391 6.635-9.075l.308-.213c1.22-.878 2.603-1.862 3.672-1.862.154 0 .368.012.652.133 3.388 8.333 9.92 13.426 17.581 13.665l.197.009.183-.021 6.809-.671.31-.04.291-.089.167-.056c1.172-.372 2.927-.946 3.552-2.975.277-.937.594-3.343-2.5-5.586l-.137-.103-.154-.08c-.667-.359-1.289-.616-1.938-.882-.861-.351-1.58-.637-2.277-1.191.064-1.369.718-3.059 1.887-4.853l3.055-4.694-5.597.264-.279.023c-.543.03-1.139.073-1.754.073-2.308 0-3.017-.613-3.433-1.271l-.051-.079-.064-.076c-.484-.667-.685-1.464-.51-2.042l1.553-2.902.741-1.386-.758-1.366c-.749-1.338-2.024-2.021-3.153-2.623-1.08-.577-1.585-.908-1.761-1.293.164-.517.507-1.146.831-1.768.869-1.596 1.952-3.599 1.233-5.952l-.406-1.306-1.266-.509-2.214-.894c.111-.279.261-.566.416-.883.774-1.587 1.822-3.774.683-6.724l-.444-1.142-1.139-.471-3.54-1.456c-1.24-1.352-1.301-3.773-.214-7.99l.017-.051.009-.064c.125-.552.24-1.148.364-1.751l.035-.153c1.228-6.069 2.294-9.823 6.715-10.791l.218-.051.21-.082c1.887-.74 3.881-1.416 5.688-1.416 1.412 0 2.559.423 3.625 1.366 1.747 1.463 4.142 4.862 4.194 7.455-.942 12.493 2.033 24.194 7.982 31.311 2.278 2.975 12.444 14.458 14.583 16.719l1.558 1.66 1.968-1.16c1.902-1.108 4.297-1.865 6.64-2.597 4.9-1.545 9.988-3.146 12.74-8.161l.342-.636.014-.718c.021-1.764-1.007-3.497-2.803-4.738l-.09-.055-.082-.051c-2.242-1.332-4.524-1.73-6.728-2.111-2.379-.406-4.429-.766-6.15-2.341l-1.049-.958-1.395.256c-1.27.231-2.491.829-3.578 1.481-.39-1.717-.617-3.663-.843-5.59-.265-2.281-.54-4.635-1.108-6.8l-.561-2.148-2.218.011c-.338.006-.689.013-1.052.032.192-.066.376-.125.564-.176.453-.146.938-.292 1.478-.442l2.482-.667-.394-2.538c-.205-1.345.09-2.289.582-3.852.166-.522.338-1.049.505-1.639l.424-1.512-1.049-1.176c-.115-.125-.226-.254-.35-.381l-.073-.068c-.763-.805-1.075-1.212-1.023-1.657l.009-.128.003-.133c0-.124.077-.329.377-.634 6.424-.805 11.543-4.454 16.513-8.011 5.393-3.848 10.485-7.49 17.029-7.52h.235l.232-.031c3.282-.564 4.858-3.466 6.119-5.816.66-1.211 1.542-2.829 2.261-3"/>
    <path fill="#1B2244" d="M174.75 192.522a.994.994 0 0 0 .154.008.908.908 0 0 0 .736-.384l2.261-3.019c.594-.808.076-1.313-.035-1.407-1.002-.852-3.411 1.459-3.437 1.477-.723.761-.685 1.968-.488 2.546.197.596.596.741.809.779m-11.868 7.482l1.057-.767c.462-.325.997-1.018.955-2.435-.052-1.604-.929-3.921-2.101-4.661l-1.632-1.036 1.721 8.899m-25.312-3.176l-.599-.758-.659.711c-.031.024-.073.047-.103.064-.184.103-.698.373-.689 1.075.235 3.658 2.187 7.579 4.267 11.277l.072.124.108.09c.745.655 1.318 1.331 1.921 2.054 1.152 1.345 2.32 2.73 4.632 3.887l.141.072 2.409.206-.531-1.275c-2.306-5.539-5.902-11.27-10.969-17.527m-96.445-83.386l-.184-.138c-1.211-.924-2.392-.146-3.018.279-.193.124-.372.248-.501.303l-.183.074-.124.153c-1.319 1.532-.956 2.555-.625 3.027l.183.251 1.315.338 2.294-1.206.085-.052c.856-.573 1.228-1.81.844-2.803l-.086-.226m34.933 1.933l-.364.151-.368 1.164.454.484c.285.326.574.633 1.031.834l.158.069h.381c.06 0 .133.008.201.008.913 0 2.35-.103 2.778-1.601l.211-.736-.711-.269c-1.024-.395-2.595-.587-3.771-.104m83.935 67.247l-.098-.171c-1.122-1.519-2.928-2.674-4.435-1.831l-.761.423.453.741c.326.538.62 1.139.908 1.712.672 1.352 1.369 2.768 2.576 3.549l.206.127h.247c.839 0 1.426-.265 1.756-.796.561-.932-.051-2.153-.556-3.138-.112-.226-.219-.432-.296-.616M95.01 123.705l-.676-.514-3.899 5.29 1.16.54.154.051c.125.038.258.047.381.047 1.288 0 2.62-1.519 3.167-2.667.805-1.673.068-2.481-.287-2.747m30.11-43.776c3.124-1.155 3.959-4.425 4.687-7.302.136-.5.256-1.005.392-1.472l.768-2.644-2.102 1.768c-2.075 1.745-3.886 4.891-4.974 8.636l-.308 1.066h1.401l.136-.052m4.229 27.799c-2.525 4.398-6.33 11.042-5.718 16.482l.127 1.16 1.465-.685.124-.15c3.069-3.823 5.546-6.462 9.112-8.636 7.301-4.033 11.217-8.959 14.835-15.118l.084-.171c2.437-7.777 1.383-14.093.458-19.671l-1.66.228c1.58 14.054-5.71 26.967-19.555 34.791.831-3.163 2.512-5.894 4.143-8.551 1.318-2.144 2.675-4.358 3.569-6.758l1.644-4.451.676-.749.064-.15c.711-1.944 1.563-3.942 2.385-5.877 3.968-9.291 8.06-18.905-.305-28.158l-.167-.183-1.022-.261 7.028-9.699.03-.155c.167-.683.364-1.381.547-2.08 1.04-3.802 2.114-7.75.185-11.354l-.056-.111-.086-.094c-1.926-1.918-3.428-1.439-4.156-.99l-.103.061-.073.089c-.12.12-.27.246-.423.378-.518.432-1.292 1.078-1.134 2.237l.176 1.188 1.057-.571c.603-.342 1.381-.372 2.019-.377.155.112.235.241.347.437.064.103.125.206.205.318.852 5.011-1.322 10.026-3.243 14.461l-2.676 6.171-1.172-.303.688 1.434.035.073.05.11c3.712 7.751 1.944 15.207.061 23.108-.761 3.219-1.557 6.553-1.947 9.903l-.258 2.188-7.321 10.421-.039.065m-10.131-60.373l-1.4 5.85 1.695-.993c1.965-1.141 3.227-3.287 3.227-5.449l-.012-.179c-.519-2.354-2.531-3.39-4.299-4.296-.846-.437-1.651-.857-2.241-1.374-.027-.07-.039-.117-.06-.152l3.416-4.45-1.153-1.258-.573.312c-.462.254-.779.428-1.073.566l-.079.042c-2.609 1.639-4.219 3.973-4.652 6.767l-.084.564.492.288c.872.514 1.814.932 2.726 1.343 1.579.711 3.072 1.374 4.07 2.419"/>
    <path fill="#1B2244" d="M102.577 92.008c-.676.676-1.322 1.317-1.946 1.831l-.117.12c-2.508 3.087-5.392 8.298-5.924 13.674-.38 3.442.108 5.107.584 6.729.174.582.337 1.146.458 1.794-1.533.462-3.139-.433-5.484-1.846-.508-.3-1.014-.611-1.55-.915-.089-.134-.564-1.066.053-5.401 1.524-6.498 3.77-12.905 4.682-13.448l.179-.073c1.806-.989 3.968-1.815 6.271-2.679 1.801-.69 3.677-1.399 5.483-2.251-.959.735-1.846 1.62-2.689 2.465m11.282-9.955l.094-.193-.012-.206c-.158-2.893-1.224-4.896-2.787-7.006l-.073-.09c-2.327-2.371-4.172-2.432-6.132-2.512-1.94-.073-4.144-.15-7.692-2.577l-.132-.09-.167-.038c-.325-.065-.544-.159-.788-.262-.543-.226-1.104-.449-2.615-.543-1.51-1.604-2.268-4.369-2.996-7.05-.222-.803-.463-1.677-.685-2.404.162-.056.367-.091.654-.134.565-.077 1.303-.071 1.979-.62l.167-.127.085-.216a3.25 3.25 0 0 0 .073-.195l.677.615c2.832 2.594 5.511 1.096 7.655-.103.934-.526 1.815-1.019 2.719-1.252l.154-.03c.595-.087 1.139-.152 1.266.101.425.728.261.99-.641 1.807-.432.389-.925.839-1.181 1.433l-.869 1.97 1.973-.869c.488-.206.847-.287 1.005-.287h.159l.153-.065c1.538-.62 3.181-1.515 3.691-3.475l.016-.124c.202-1.892-.394-3.492-1.601-4.288-3.02-1.875-5.764.033-8.178 1.719-1.918 1.341-3.737 2.599-5.508 2.047l-1.349-.42c-.047-.423-.214-.812-.569-1.108l-.183-.146-.228-.028c-.474-.07-.941-.772-1.167-1.735 1.313-4.811.538-6.428-.442-8.471-.184-.401-.377-.8-.57-1.254 4.25-.991 10.012-2.691 14.586-5.978l5.989-4.707c2.256-1.704 4.759-2.479 7.417-3.292 2.983-.917 6.064-1.866 8.855-4.233 1.031-.646 1.515-1.798 1.977-2.906.373-.874.71-1.67 1.245-2.179.099 2.192-.975 4.67-2.024 7.074-1.01 2.317-2.059 4.721-2.059 6.931v.838h1.845l.257-.277c1.357-1.52 2.401-3.545 3.411-5.506 1.827-3.557 3.561-6.919 7.041-7.549.343.12.526.475.881 1.254.082.196.171.394.274.595.587 3.073.258 5.294-.958 6.771-.218.235-.511.53-.843.868-2.453 2.461-4.606 4.842-4.157 6.831l.164.75.765-.107c3.001-.423 5.304-2.825 7.332-4.948.642-.668 1.245-1.293 1.853-1.849l.124-.146c.526-.775 1.168-2.139 1.25-3.44l.021-.279-.167-.235c-.838-1.267-1.681-2.747-1.545-4.242.158-.364 1.242-1.069 2.423-1.146.252-.017.843-.017 1.001.312.232.826.112 1.947-.008 3.132-.239 2.2-.531 4.923 1.794 6.351.958.728 2.212 1.05 3.419 1.367 2.269.573 3.564 1.002 3.616 2.798-.219.698-.677 1.169-1.262 1.609l-.38.206.033.059c-.061.043-.115.087-.179.126-1.028.748-2.312 1.682-2.244 3.607l.023.352.264.239c.54.475 1.079.975 1.631 1.489 1.519 1.416 3.076 2.869 4.914 4.088-.908.274-1.866.394-2.852.514-1.463.183-2.952.38-4.445 1.061a1.83 1.83 0 0 0-.411.2 8.631 8.631 0 0 0-1.127.699l-.176.118-.093.202a7.78 7.78 0 0 0-.236.57l-.136.493v.012a2.844 2.844 0 0 0 .247 1.977l.077.137c1.682 2.213 4.156 3.904 6.544 5.538 1.817 1.249 3.545 2.427 4.863 3.775-.111.244-.381.407-.881.686-.411.225-.878.477-1.263.894l-.423.458.312.531c.573.987.834 1.937 1.113 2.944.5 1.853 1.026 3.752 3.543 5.44-.462.376-1.139.637-1.678.526-2.67-.685-4.023-2.735-5.469-4.914-1.187-1.801-2.423-3.654-4.451-4.879l-.381-.235-1.688.831.073.585c.378 3.06 2.355 5.907 4.64 9.211 2.247 3.219 4.768 6.844 6.698 11.732-.932-.287-2.207-1.456-3.191-2.359-1.632-1.501-3.168-2.919-4.573-2.221l-.555.282.102.617c.192 1.028.535 1.96.865 2.859.714 1.951 1.339 3.642.162 5.971l-.072.183c-1.16 5.09-3.137 9.408-5.041 13.585-3.003 6.579-5.835 12.793-5.36 21.212.056 1.069-.012 1.797-.09 2.567-.042.432-.089.878-.103 1.383a24.67 24.67 0 0 1-.235-1.271c-.321-1.755-.646-3.578-1.554-5.261l-.239-.439h-.501c-1.134 0-1.528.984-1.686 1.351l-.074.197.023.215c.148 1.301.124 2.435.089 3.539-.06 2.457-.119 5.003 1.747 9.351l.08.176.15.132c1.952 1.653 3.159 2.799 3.083 5.381-.116.599-.219.599-.69.611-.137 0-.287 0-.441.026-1.386-.501-2.431-1.083-3.487-1.964-1.885-3.535-2.595-6.557-3.125-8.771-.253-1.082-.454-1.937-.733-2.562l-.119-.261-.257-.142c-2.012-1.066-3.784.491-5.097 1.631-.211.184-.42.372-.669.573-.191.188-.389.373-.58.566-1.293 1.266-2.106 1.968-3.665 1.571-.521-.266-1.009-.442-1.442-.604-1.122-.424-1.798-.682-2.491-2.115l-.016-.042c.016-.061.051-.16.071-.223.094-.305.227-.714.155-1.181l-.073-.437-.397-.188c-6.546-3.12-7.307-9.917-7.521-16.628.402-6.017 4.344-10.682 8.162-15.185.702-.843 1.399-1.665 2.076-2.496l3.543-4.438-2.515.714c-5.689 1.623-9.49 5.869-12.845 9.619l-.235.251c-3.177 2.628-4.961 5.659-7.208 9.498-.287.479-.585.984-.89 1.49l-.059.118c-.24.604-.387 1.136-.511 1.559-.278.988-.355 1.27-1.156 1.493l-.765-.641c-1.982-5.313-1.071-8.945.415-14.874.924-3.033 1.686-3.754 3.205-5.179 1.348-1.275 3.206-3.024 6.079-7.103l.286-.399-.655-1.413-.518-.024a5.668 5.668 0 0 0-1.579.191c2.466-1.498 4.567-3.388 5.786-5.999M49.307 41.756c1.7-1.901 4.482-4.193 8.192-4.437.793.051 1.491.201 2.115.448l-2.354 1.05c-1.125.508-2.191 1.176-3.222 1.822-1.726 1.083-3.365 2.115-5.02 2.212.026-.405.101-.773.289-1.095m15.571 53.757c.573-.605 1.169-.485 2.44-.035.655.228 1.323.463 2.037.463h1.348l-.594-1.207c-2.123-4.315-5.94-4.301-9.293-4.289-1.789.009-3.479.009-4.883-.566-.068-.52.176-1.129.535-1.989l.12-.308c.723-.826 2.217-1.045 3.664-1.267 1.579-.24 3.065-.466 3.776-1.533.367-.569.448-1.283.221-2.114l-.111-.423-.411-.15c-.645-.235-1.579-.368-2.653-.521-2.77-.417-6.536-.968-8.167-3.437.318-1.602.737-2.586 1.469-3.472.85-.334 1.404-.038 2.43.579.467.285.993.611 1.61.85.47.308 1.001.42 1.52.334.582-.099 1.103-.437 1.476-.958l.235-.343-.129-.402c-.833-2.552-2.773-2.897-4.48-3.193-.882-.155-1.73-.3-2.436-.728l-1.48-4.16c.226-.414.634-.54 1.343-.723.557-.138 1.177-.296 1.726-.707l.153-.115.086-.171c.907-1.777-.385-3.043-1.164-3.797a7.863 7.863 0 0 1-.472-.495l-.141-.181-.218-.077c-.411-.158-.775-.36-1.16-.573-.916-.514-1.951-1.095-3.68-.899-.316-.226-.617-.411-.908-.59-.709-.441-1.287-.789-1.865-1.566-.262-.716-.159-1.567-.048-2.456.098-.803.201-1.615.089-2.463.087-2.965 1.798-3.966 3.97-5.234.965-.56 1.963-1.143 2.897-1.977l6.551-6.531c1.439.791 2.514 2.16 3.644 4.019.735 3.989 1.117 6.453.448 10.054l-.021.097v.103c.839 16.585 11.129 27.9 20.21 37.886a320.926 320.926 0 0 1 3.691 4.092c-.545 1.335-.869 2.641-1.181 3.908-.63 2.513-1.178 4.699-3.249 6.133-2.958.543-6.866.278-8.373-2.277l-.347-.582-3.308 1.1c-2.979.937-4.679 0-7.494-1.545l-.458-.248c-.681-2.508-.026-3.75 1.035-5.316m23.067 56.936c.44-.603 2.203-2.768 4.301-2.106.364.432.625 1.062.505 1.583-.232.438-.458.882-.685 1.324-1.16 2.294-2.174 4.287-4.43 5.011a.99.99 0 0 1-.247-.36c-.557-1.305.016-4.263.556-5.452m27.25 50.637c-.496 1.014-.904 2.306-1.169 3.67.009-.024.009-.063.018-.092.287-1.868.608-3.985.608-6.614v-.996l-1.772.316-.198.342c-3.484 6.121-3.937 14.378-1.138 20.57.223 1.207.808 2.26 1.326 3.176 1.01 1.806 1.186 2.371.313 3.055-.513 0-.928-.23-1.55-.608-.859-.533-1.925-1.188-3.341-.543-.977.451-1.58 1.404-2.167 2.341-.714 1.144-1.185 1.841-1.904 1.773-1.815-.167-2.512-2.136-3.026-3.977-.248-.899-.407-1.494-1.048-1.625-.356-.075-.711.071-.951.376-.8.996-1.293 2.162-1.724 3.193-.882 2.092-1.434 3.179-3.194 3.068a2.509 2.509 0 0 1-.179-.218c-.235-.317-.707-.932-1.613-.895-.869.01-1.742.484-2.594.95-1.395.767-2.05 1.023-2.522.586-.103-.273.561-1.352.89-1.869.852-1.366 1.918-3.07.716-4.367a1.056 1.056 0 0 0-.775-.338c-.042 0-.077 0-.115.005-.796.082-1.691.925-4.35 5.329-.162.264-.274.466-.338.552-.493.749-4.4 1.318-8.09-.19-.196-.345-.594-.645-1.184-.974-.775-1.353-1.153-2.397-.587-3.107l.056-.091c.505-.834.77-1.386.975-1.785.42-.829.462-.908 1.857-1.946.566-.293.955-.639.78-1.242l-.325-1.181-.976.728c-.125.094-.252.183-.364.265-.128.064-.275.124-.402.188-1.314.578-3.498 1.554-4.708 3.423l-2.671 4.041c-.235.206-.69.277-1.207.361-.056.007-.115.02-.171.029-.064-.052-.129-.099-.184-.15-.142-.107-.295-.223-.368-.32.064-.536.474-1.319.864-2.08.878-1.726 1.977-3.879.275-5.339l-.583-.5-.544.552c-.409.401-.757.915-1.13 1.464-.582.86-1.249 1.841-1.925 1.952-.27.044-.566-.04-.904-.245-.132-3.073.575-5.118 2.749-8.2l.038-.055c1.763-2.975 2.855-4.494 5.513-6.005 2.062.847 4.416 2.328 6.694 3.766 2.136 1.34 4.155 2.606 5.97 3.406 5.17 3.459 10.431 3.165 13.723-.748l3.949-4.288-.004-.338c-.118-4.858-1.644-9.652-3.257-14.719-.235-.746-.474-1.494-.709-2.242l-.091-.279-.231-.163c-.69-.47-1.392-.176-1.81 0a3.08 3.08 0 0 1-.214.082l-.258.106-.145.231c-.355.561-.552.882-1.327 1.079-.106-.056-.427-.295-.958-1.15.23-3.78.064-6.759-1.348-10.568-1.631-5.304-.715-8.663 3.029-10.927 1.927-1.305 3.353-1.841 5.577-2.094.086.018.168.035.27.052.749.15 1.207.295 1.345.415.028 3.656.932 5.616 3.482 7.666.476.535 2.514 2.646 3.129 3.069l.561.368.489-.462c1.84-1.768 4.061-.853 5.606.235 2.499 2.277 4.323 4.272 5.722 6.273.545.977 1.071 1.871 1.571 2.745 1.315 2.23 2.461 4.186 3.477 6.877-.079.014-.143.023-.225.035-3.175.368-7.523.882-9.004 4.82m-1.395 5.238c-.185 1.81-.082 3.611.437 4.944l.106.268.115.069c.18.291.643 1.164 1.054 1.948.975 1.857 2.306 4.4 3.437 6.022.05.2.101.388.154.578.633 2.397.799 3.372-.668 3.998-.78-.652-1.247-1.859-2.62-5.569-2.494-5.672-2.468-8.86-2.015-12.258m52.407-24.366c-1.207-2.937-1.352-3.313-3.341-4.015l-1.618-.568.538 1.616c2.167 6.507 3.959 12.243 5.546 17.793-.17-.112-.35-.18-.55-.201a1.071 1.071 0 0 0-.822.286l-.317.308.214 1.331c1.601 9.854 3.407 20.997 12.185 26.331.175.942.017 1.463-.257 2.167l-.078.2.04.227c.347 2.379-.167 4.523-.711 6.788-.715 3.02-1.464 6.145.065 9.672.071.398.171.77.27 1.138.242.89.376 1.456.127 1.909-1.228.763-1.951 1.066-3.013.964l-1.99-.197 1.263 1.553c3.188 3.916 1.322 6.104-1.263 9.147-.611.715-1.241 1.455-1.827 2.256-3.193 1.527-9.845 1.39-16.285 1.24l-3.151-.064h-.103l-.103.026c-.663.162-1.566.076-2.088-.312.017-.626.15-.839.608-1.554l1.72-2.743-2.739 1.437c-.505.258-.976.543-1.438.831-.86.513-1.67 1.005-2.586 1.313a3.497 3.497 0 0 1-.56-.047c-.064-.12-.137-.415-.196-.685l-.03-.132c-.116-1.939.706-2.717 1.836-3.796.542-.527 1.169-1.112 1.669-1.888l.244-.364-.667-1.703-.887.684c-2.456 1.918-5.555 3.048-8.8 3.22-.012-.087-.021-.163-.035-.224-.03-.212-.05-.303.035-.543 2.535-5.158 3.986-7.314 8.748-8.757.493.214.994.42 1.503.638 1.531.634 2.979 1.233 4.156 2.158l.176.103c.615.268.996.637 1.181 1.125.389 1.04-.146 2.58-.672 3.801-.15.285-.296.599-.415.932l1.549.642c.115-.261.244-.539.376-.839 1.105-2.007 3.181-2.747 5.354-3.522 2.629-.929 5.324-1.892 6.236-5.123 1.448-2.859 2.347-7.649 1.335-10.837a108.938 108.938 0 0 1-1.394-3.907c-1.156-3.334-2.144-6.227-4.464-9.81a59.026 59.026 0 0 1-1.653-2.94c-.95-1.828-1.716-3.263-4.249-6.134l-.111-.128-.159-.077c-.257-.124-1.057-.496-1.776-.138-.295.147-.685.476-.84 1.195l-.05.227.081.222c1.056 3.005 2.704 5.559 4.318 8.034 1.023 1.589 2.021 3.116 2.851 4.738a8.807 8.807 0 0 0-.574-.373l-.094-.043c-12.604-5.756-18.982-16.468-25.744-27.82-6.018-10.105-12.245-20.546-23.249-27.172-1.374-1.349-2.811-2.637-4.203-3.878-4.574-4.088-8.915-7.953-10.969-14.022 5.482 2.247 10.075 6.442 14.535 10.503 3.839 3.502 7.814 7.127 12.301 9.421l4.578 2.346-6.44-6.574c-3.104-4.388-6.947-7.978-10.662-11.453-3.125-2.924-6.355-5.941-9.159-9.442-.359-1.849.59-4.169 1.742-5.39l.064-.059c.612-.821.511-2.127.082-2.996-.385-.779-1.014-1.232-1.726-1.232l-.06.009c-.337.024-.83.024-1.416.024-3.06.014-7.695.035-8.436 2.89l-.099.381 1.498 2.084c-3.731.252-5.723 2.888-7.658 5.452-.47.63-.944 1.268-1.458 1.867a5.265 5.265 0 0 0-.47.129s0-.014-.006-.026l-.008-.061c-.453-2.564.334-4.708 1.172-6.962.925-2.505 1.878-5.078 1.216-8.351l-.038-.171-.103-.141c-.45-.639-1.023-1.019-1.712-1.127-1.472-.23-2.984.908-4.19 1.82-.446.333-.86.65-1.121.774l-.596.282.134.634c.115.587.633.749 1.137.916.861.274 1.328.5 1.328.929l.003.068c.176 2.097-.611 3.309-2.285 3.497-2.674.304-6.296-2.083-6.788-5.478-.192-1.777.369-3.278 1.66-4.473.292-.176.592-.098 1.165.125.202.081.38.141.556.192l.493.132 5.405-5.96-3.646 1.634c-.3.144-.578.299-.857.445-1.022.582-1.446.817-2.345-.061l-.153-.149c-.301-.291-.557-.544-.883-.702l-.543-.253-.711.742c-2.238 2.331-6.86 7.142-10.096 6.026-.976-1.316-.826-2.471-.643-3.913.146-1.101.305-2.324-.059-3.714.296-.329.629-.669.975-1.015 1.298-1.319 2.761-2.8 3.315-4.789l.11-.432-1.061-1.241-.502.128c-1.742.446-3.273 2.059-4.755 3.616-.608.634-1.176 1.237-1.702 1.695l-.094.077-.061.094c-.808 1.198-.244 2.277.124 2.996.257.497.411.817.329 1.061-.564 1.464-1.625 2.407-2.841 2.508-1.202.096-2.354-.637-3.15-1.989-.493-.925-.132-1.806.509-3.16.282-.594.575-1.202.737-1.834l.123-.485-.358-.339c-1.011-.953-6.285-5.682-10.838-5.825l-.92-.03.061.913c.115 1.784 2.224 3.304 4.471 4.912.913.648 1.845 1.319 2.564 1.962.022.033.03.067.044.111.054.132.132.338.157.471-.406-.103-1.207-.561-1.669-.822-.763-.429-1.258-.701-1.707-.779-1.378-.317-2.855-.45-4.28-.574-2.097-.179-4.271-.369-6.185-1.168-1.194-.835-1.733-1.528-1.786-2.277-.068-1.7.965-2.552 2.167-3.539.89-.737 1.827-1.507 2.268-2.688l.613-1.619-1.653.527c-.179.064-.359.125-.531.179-1.263.432-1.848.595-2.503.103-.436-.821-.436-1.014-.433-1.813v-.236c.279-2.303 2.657-4.062 4.396-5.351.74-.547 1.339-.988 1.686-1.416.677-.561 2.071-1.866 2.071-3.141v-1.13l-1.075.324c-2.296.695-4.001 2.017-5.652 3.297-.967.739-1.887 1.451-2.859 2.007-.021-.056-.031-.108-.047-.168l.385-1.673c2.418-3.702 4.224-5.487 8.243-6.154 1.806.308 2.346 1.579 3.12 3.779.257.736.522 1.502.89 2.246l.043.078c3.038 4.87 10.525 6.111 15.01 6.86 3.27.463 8.325-.401 11.624-2.944 1.545-1.19 2.508-2.644 2.799-4.219 1.524-.93 3.416-.442 5.405.068.805.209 1.648.42 2.402.521 2.535.479 3.317 2.641 4.152 4.923.407 1.104.821 2.247 1.459 3.192l.12.15c3.326 3.099 8.527 4.4 13.037 3.291 1.375.733 2.235 1.94 3.146 3.227.939 1.319 1.901 2.685 3.472 3.629l.582.357 1.139-1.242-.361-.549c-.714-1.081-.552-2.044-.273-3.35 1.022.039 1.536.865 2.327 2.269.502.911 1.08 1.942 1.978 2.696 1.699 1.408 2.533 2.679 3.502 4.142 1.668 2.534 3.564 5.407 10.297 9.644l.128.059c2.8 1.177 4.545-.706 5.94-2.224.488-.518.942-1.011 1.404-1.361.249-.138.5-.301.749-.464.287-.196.873-.576 1.117-.602.176.817.308 1.698.446 2.63.346 2.282.693 4.649 1.78 6.708 1.968 3.334 4.987 3.672 7.649 3.972.637.068 1.25.137 1.823.24-.372.474-.801 1.061-.801 1.775v.497l.437.235c5.067 2.74 8.47 7.837 11.756 12.763 3.357 5.025 6.82 10.221 12.087 13.042l.116.055.129.026c2.558.483 6.5-.954 7.93-3.592l.065-.094.026-.111c2.048-8.631-2.287-17.573-6.48-26.219-1.709-3.517-3.322-6.839-4.534-10.156l-.021-.052c-4.099-9.035-7.626-17.863-5.752-26.684 1.58-8.283 4.871-13.573 9.788-15.704 3.301-.205 6.931-.081 9.023 2.28l.111.109c3.531 2.708 4.904 8.974 4.16 13.212-.209 1.022-.355 2.132-.496 3.217-.359 2.731-.728 5.54-2.073 7.328-.11-.008-.268-.116-.667-.47-.175-.15-.354-.305-.556-.446-1.801-1.776-1.271-3.59-.603-5.88.453-1.554.92-3.168.667-4.902l-.184-1.253-1.583.976-1.751 5.786c-.107.168-.38.339-.587.42-1.112-2.276-.269-4.75.618-7.37.573-1.703 1.167-3.468 1.167-5.17v-.167l-.052-.137c-.799-2.068-2.057-3.625-3.658-4.512l-.146-.077-.159-.021c-3.316-.42-5.872 2.826-7.562 4.97-.184.239-.367.474-.543.693l-.094.141c-7.234 14.025.073 28.418 7.151 42.341 4.819 9.497 9.81 19.32 10.263 29.022.031.78-.136.848-.702 1.066-.517.209-1.305.526-1.561 1.554-.287 1.134.235 1.747.495 2.05a.494.494 0 0 1 .061.068c.296.989.688 1.803 1.078 2.594.852 1.743 1.528 3.128.796 5.766-.167 0-.406-.022-.568-.036-.643-.059-1.982-.17-2.217 1.098-.129.74.329 1.317.672 1.736.08.103.204.266.232.307.752 2.294.743 3.04-.768 3.879-1.617.891-9.022-3.077-10.776-5.778a131.22 131.22 0 0 1-2.381-5.525m-.556-73.658c1.135-2.915 2.577-5.419 4.19-7.262.249-.056.463-.112.672-.168.741-.202 1.101-.299 1.592-.013.42 1.994.3 3.86-.371 6.171-1.118 2.963-.578 6.386 1.561 9.905l.082.137.124.089c2.203 1.695 2.585 3.959 3.034 6.579.338 2.016.698 4.108 1.926 6.09l.077.099.099.089c.35.291.697.385.929.446.05.016.099.026.127.042l.146.061.141.017c1.354.106 2.632-.634 3.643-2.069l.031-.05c4.522-7.558 5.875-16.979 3.937-27.251l-.061-.197c-2.73-5.91-6.771-9.634-12.711-11.723l-.129-.029c-3.231-.582-8.101-.1-11.192 3.112-6.313 5.778-8.478 16.181-7.831 23.351.27 9.014 4.518 17.865 8.636 26.416 4.169 8.666 8.48 17.619 8.407 26.492-.464 1.263-1.075 1.558-2.176 2.089-.239.112-.5.241-.77.376-.749-.247-1.378-.864-1.986-1.458a14.362 14.362 0 0 0-.92-.824c-3.86-4.471-6.248-7.994-8.18-10.826-2.79-4.105-4.818-7.101-9.218-10.209-.231-2.028-1.155-4.377-1.926-5.374-.248-2.055-1.211-3.661-2.084-5.081-.42-.702-.83-1.378-1.13-2.064.688 0 1.263-.221 1.618-.526.342-.291.521-.683.483-1.078.42-2.676.566-5.064.707-7.383.209-3.466.402-6.737 1.54-10.092 3.078-6.099 5.145-12.511 7.342-19.291.7-2.165 1.42-4.399 2.177-6.615 1.828.315 4.212.145 5.663-.818.706-.471 1.143-1.109 1.253-1.837.634-2.268-.518-3.907-1.528-5.363-.505-.735-.988-1.416-1.254-2.165.338-1.981 2.008-3.158 3.785-4.407 1.742-1.225 3.538-2.496 4.189-4.628l.15-.492-.378-.36c-1.052-1.006-2.289-1.301-3.384-1.552-1.328-.314-2.106-.54-2.589-1.495l-.065-.108c-.975-1.378-.304-2.956.826-5.212.42-.843.847-1.703 1.105-2.534l.064-.223-.052-.218c-.321-1.334-2.212-2.033-4.601-2.914-1.717-.629-4.305-1.589-4.499-2.482l-.068-.378-.282-.154c.561-.381 1.88-.919 2.885-1.334 2.743-1.118 5.847-2.381 6.603-4.393l.27-.705-.676-.338c-3.971-1.977-6.236-4.965-7.469-7.245l1.263-2.714c1.451-1.97.707-4.297.111-6.173-.184-.606-.381-1.176-.482-1.704l-.035-.123c-1.118-3.085-3.348-2.61-4.973-2.256-1.275.266-2.145.416-2.89-.154l-.634-6.723-.47-.189c-.389-.163-.796-.36-1.232-.564-1.829-.886-4.29-2.076-6.309-.287-.296-.141-.573-.491-.908-.955a9.17 9.17 0 0 0-.372-.488c-1.284-1.639-3.077-1.194-4.519-.834-.861.214-1.677.42-2.273.204l-.115-.033c-.801-.167-1.207-.714-1.782-1.794l-.153-.294-.33-.112c-3.403-1.108-4.952 1.75-6.317 4.276-1.117 2.072-2.183 4.019-4.08 4.348-7.45.021-13.164 4.1-18.685 8.051-5.047 3.604-9.806 7.015-15.784 7.558l-.249.021-.193.159c-.459.364-1.837 1.468-1.863 3.184-.2 1.836.96 3.055 1.807 3.938.116.133.249.265.352.389-.15.557-.308 1.049-.462 1.541-.554 1.742-1.002 3.159-.69 5.165-.582.155-1.113.322-1.589.476-1.926.599-3.123.972-5.182.09a15.84 15.84 0 0 0-.864-1.524c-.545-.878-.639-1.026-.138-2.456 1.275-1.052 1.805-.796 3.023-.197.2.094.414.21.641.298l1.947.892-.83-1.97c-.856-2.037-2.051-3.165-3.65-3.449l-.113-.009c-2.357-.085-4.296.805-5.461 2.505-1.331 1.943-1.472 4.724-.376 7.274 2.017 4.799 6.647 4.555 10.371 4.367.697-.04 1.364-.073 1.984-.078.523 1.982.786 4.25 1.042 6.45.347 3.026.706 6.163 1.751 8.685l.376.92.84-.54c.244-.141.5-.312.757-.488 1.22-.804 2.718-1.789 4.049-2.029 2.327 2.137 5.004 2.599 7.596 3.052 2.033.352 3.959.686 5.752 1.747.775.538 1.571 1.425 1.564 2.355-2.197 4.01-6.523 5.374-11.094 6.804-2.484.782-5.043 1.592-7.22 2.867-2.223-2.354-12.332-13.773-14.434-16.538-5.508-6.57-8.252-17.551-7.344-29.377v-.068c0-3.869-3.198-8.03-5.205-9.729-3.78-3.29-8.269-1.952-12.211-.423-6.56 1.442-7.807 7.593-8.91 13.019a109.11 109.11 0 0 1-.39 1.875c-1.027 3.976-1.674 8.392 1.293 11.059l.103.091 4.039 1.66c.698 1.794.103 3.022-.585 4.438-.493 1.014-1.002 2.067-1.045 3.348l-.021.585 4.37 1.756c.368 1.202-.275 2.392-1.01 3.757-.519.959-1.054 1.952-1.216 3.008l-.017.112.017.115c.253 2.067 1.947 2.975 3.313 3.703.881.47 1.66.89 1.998 1.498l-1.631 3.033-.038.096c-.587 1.527-.256 3.355.843 4.858 1.831 2.885 5.278 2.674 7.79 2.52.077-.004.154-.013.235-.017-1.271 1.96-2.616 4.738-2.306 7.447l.042.282.193.197c1.301 1.327 2.564 1.844 3.805 2.341.557.228 1.095.441 1.621.736.676.485 1.725 1.434 1.425 2.431-.162.536-.615.728-1.681 1.08l-.176.05-6.809.676c-6.685-.209-12.386-4.886-15.271-12.523l-.103-.243-.218-.15c-3.081-2.059-5.851-.077-8.077 1.507l-.303.221c-4.576 3.322-7.246 7.208-7.922 11.569l-.039.224.077.212c.462 1.165 1.164 1.791 1.819 2.322-.504 2.104.099 4.271.634 5.759l.026.078c.188.415.333 1.091-.702 2.11l-.287.282.038.407c.064.471.085.976.116 1.507.103 1.784.213 3.817 1.394 5.405l.07.103.097.073c3.073 2.277 7.457 2.366 11.33 2.453 1.142.016 2.243.038 3.236.115.397 2.294 2.414 3.83 3.933 4.985.162.138.338.261.523.403 2.186 1.548 4.835 1.858 7.732.933l.93 3.535.15.155c1.883 2.02 4.39 1.562 6.59 1.151 1.003-.181 1.952-.355 2.783-.303.298.379.594.765.885 1.146 2.718 3.557 5.073 6.633 10.581 5.987.397.064.761.014 1.074-.038-.038.625-.141 1.25-.244 1.897-.278 1.703-.56 3.457.232 5.306l.063.128c1.562 2.347 3.13 1.73 4.165 1.323.221-.081.423-.163.607-.213l.993 3.174.112.125c1.639 1.951 3.848 1.742 5.787 1.558 1.014-.098 1.969-.18 2.778.013 1.108.492 2.162 1.828 3.021 3.817-3.256.655-5.522 2.055-7.644 4.673-5.325 5.428-6.412 15.829-6.595 21.538v.198l.08.174c1.58 3.517 4.927 4.944 8.172 6.316 1.129.493 2.217.955 3.201 1.5 1.861 3.179 2.817 7.64 2.35 10.981-.801 1.592-1.918 2.564-3.809 3.343-4.109.895-7.616-2.042-11.009-4.871-1.46-1.224-2.838-2.379-4.237-3.201l-4.952-2.89-.249.014c-2.975.141-5.517 2.559-6.78 4.01-5.388 5.286-6.732 13.482-7.279 19.196l-.026.308.179.256c.716 1.015 1.866 1.127 2.787 1.221 1.131.111 1.58.227 1.807.89l.115.329.296.142c6.694 3.398 14.52 3.797 22.101 4.186 1.455.072 2.89.149 4.289.235.754.052 1.515.167 2.242.27 2.752.398 5.59.808 7.683-2.059.455-.617.926-.548 2.504.351.587.326 1.181.662 1.768.805 2.067.488 4.024-.822 5.739-1.982.861-.584 1.683-1.126 2.458-1.437 1.117-.45 2.632-.531 4.228-.622 3.193-.176 6.814-.376 8.401-3.686l.073-.131.013-.142c.402-3.544-1.452-6.912-3.223-10.168-2.145-3.912-4.165-7.607-1.96-11.027 1.806-2.64 6.008-2.691 7.961-2.572 1.287.916 2.071 2.291 2.888 3.729 1.01 1.779 2.055 3.603 4.105 4.519 5.085 5.959 7.733 9.27 9.321 11.261 2.646 3.303 2.749 3.437 6.421 6.364 1.892 1.703 4.005 2.898 6.039 4.053 4.536 2.568 8.123 4.597 7.262 11.016-.47 1.759-1.583 3.9-2.49 4.29-5.291 1.968-10.187-1.344-12.626-3.489l-.176-.141-.214-.042c-2.187-.442-4.16 1.04-5.597 2.118l-.432.312-.052.051c-1.854 1.63-7.875 7.509-7.875 14.933v.164l.059.153c.184.437.441.864 1.062 1.057l.201.065 5.525-1.131c-.033 1.281.15 3.138 1.357 4.204l.162.115c1.327.707 2.508.522 3.55.367.26-.042.512-.08.749-.101.256.38.491.636.676.821l.298.334.339.017c3.732.232 6.574.368 10.121.368h.052c1.619-.095 3.261-.073 4.85-.044 3.783.058 7.682.112 11.53-1.398l.172-.091c4.736-3.32 6.081-9.821 7.271-15.557.411-1.998.799-3.886 1.313-5.593l.112-.359-.201-.319c-2.158-3.47-1.224-7.082-.24-10.904.783-3.014 1.588-6.13.808-9.236l-.068-.284-.235-.174c-6.694-5.119-9.168-15.365-11.565-25.27-.334-1.381-.663-2.73-.987-4.034 3.26 3.478 7.103 5.649 9.364 5.649h.338c1.845 0 3.535-1.46 4.245-2.907 8.175-16.589.244-33.464-7.438-49.784-5.792-12.314-11.775-25.047-10.739-37.484"/>
    <path fill="#1B2244" d="M55.942 46.148l-.543.295c-.502.278-.934.526-1.23.745l-.175.128-.09.205c-.564 1.286-.564 3.001.775 3.724l.603.329.437-.531c.852-1.022 1.716-2.078 2.162-3.44l.205-.617-1.707-1.092-.437.254m56.274 136.598l-.981-.174v.996c0 2.825 2.099 5.167 3.681 6.682l1.682 1.604-.278-2.308c-.166-1.454-.962-6.255-4.104-6.8m21.755-135.944c-.013.207-.052.587.175.933.595 1.838 2.205 2.094 2.745 2.188l.418.009.141-.061c1.956-.728 2.963-2.524 3.857-4.104.334-.594.646-1.148.993-1.648l.98-1.365-1.679.047c-1.766.052-2.644 1.416-3.35 2.52-.536.849-.916 1.4-1.426 1.528-.427-.227-.462-.371-.462-.371l-.09-.403-.363-.175a2.71 2.71 0 0 1-.163-.091c-.236-.15-.8-.491-1.417-.124l-.582.334.236.642a.645.645 0 0 1-.013.141M80.363 86.628l-.195-.227c-1.127-1.362-2.176-2.877-3.19-4.331-1.588-2.274-3.219-4.624-5.18-6.446l-.542-.51-1.67 1.421 10.777 12.789v-2.696m38.175-10.384c-.724 1.583-1.473 3.233-1.033 4.926l.068.235.172.176c.689.641.737 1.387.741 2.543.005.814.008 1.734.411 2.636l1.434 3.24 1.121-24.028-2.032 8.021c-.185.72-.523 1.46-.882 2.251"/>
    <path fill="#BF333A" d="M81.759 51.048l1.947.89-.83-1.968c-.856-2.038-2.051-3.167-3.651-3.451l-.112-.007c-2.357-.087-4.297.805-5.461 2.503-1.331 1.944-1.472 4.726-.376 7.276 2.017 4.799 6.647 4.555 10.371 4.367.697-.04 1.364-.075 1.986-.079 2.68-1.181 6.095-1.618 6.912-2.177.844-.577.844-3.2-1.024-3.333-1.604-.115-5.67-.873-5.644-.702-.582.153-1.122.314-1.597.47-1.927.599-3.125.97-5.183.09a15.359 15.359 0 0 0-.865-1.524c-.544-.878-.638-1.028-.136-2.458 1.275-1.052 1.806-.794 3.02-.195.202.093.416.209.643.298"/>
  </g>
</svg>
